<svg width="397" height="361" viewBox="0 0 397 361" fill="none" xmlns="http://www.w3.org/2000/svg">
<g filter="url(#filter0_d_133_1502)">
<path fill-rule="evenodd" clip-rule="evenodd" d="M119.633 8C108.045 8 97.7208 13.4063 91.0437 21.834C90.9937 21.7982 90.9436 21.7626 90.8933 21.7272C84.2701 14.9162 75.0075 10.6851 64.7567 10.6851C47.6349 10.6851 33.2701 22.4892 29.3563 38.4034C20.6168 45.0628 14.9763 55.581 14.9763 67.4166C14.9763 77.6237 19.1714 86.851 25.9315 93.4684C24.4359 96.6217 23.5991 100.148 23.5991 103.87C23.5991 109.131 25.2709 114.002 28.1122 117.98C23.3182 124.151 20.4637 131.904 20.4637 140.324C20.4637 148.672 23.2697 156.364 27.9899 162.51C26.4257 166.573 25.5684 170.987 25.5684 175.602C25.5684 177.419 25.7013 179.205 25.9581 180.951C15.9734 183.972 8.7041 193.245 8.7041 204.216C8.7041 215.165 15.9441 224.422 25.8977 227.462C24.667 231.117 24 235.032 24 239.102C24 245.547 25.6729 251.602 28.6082 256.856C25.4665 260.951 23.5991 266.075 23.5991 271.636C23.5991 275.609 24.5529 279.361 26.244 282.672C24.5383 286.891 23.5991 291.501 23.5991 296.33C23.5991 316.463 39.92 332.784 60.0528 332.784C73.7521 332.784 85.6865 325.227 91.9149 314.055C97.9689 325.797 110.215 333.827 124.337 333.827C131.652 333.827 138.465 331.672 144.174 327.962C148.427 331.618 153.959 333.827 160.007 333.827C162.475 333.827 164.857 333.459 167.102 332.775C173.663 342.402 184.716 348.722 197.245 348.722C208.454 348.722 218.482 343.663 225.169 335.703C227.602 336.52 230.206 336.963 232.914 336.963C241.489 336.963 249.027 332.522 253.352 325.814C258.38 328.429 264.093 329.907 270.152 329.907C275.318 329.907 280.233 328.833 284.685 326.895C288.163 328.815 292.161 329.907 296.414 329.907C301.816 329.907 306.807 328.145 310.842 325.163C317.201 330.567 325.438 333.827 334.436 333.827C337.128 333.827 339.753 333.535 342.279 332.981C346.024 335.34 350.458 336.704 355.21 336.704C368.632 336.704 379.512 325.823 379.512 312.401C379.512 309.76 379.091 307.218 378.312 304.837C382.525 298.892 385.001 291.628 385.001 283.787C385.001 273.733 380.931 264.63 374.348 258.035C380.777 253.662 385 246.287 385 237.926C385 227.154 377.992 218.02 368.287 214.832C368.963 212.057 369.321 209.158 369.321 206.176C369.321 196.214 365.325 187.186 358.849 180.606C360.041 177.737 360.698 174.59 360.698 171.29C360.698 169.565 360.519 167.883 360.177 166.26C374.607 161.406 385.001 147.767 385.001 131.701C385.001 120.056 379.541 109.686 371.041 103.012C372.453 99.9318 373.24 96.5053 373.24 92.895C373.24 86.388 370.683 80.4783 366.518 76.1161C369.306 70.9634 370.889 65.0631 370.889 58.7932C370.889 38.6603 354.569 22.3395 334.436 22.3395C332.021 22.3395 329.662 22.5742 327.378 23.0221C322.629 20.7562 317.313 19.4878 311.7 19.4878C303.972 19.4878 296.806 21.8923 290.909 25.9939C284.239 18.6275 274.6 14.0001 263.88 14.0001C253.275 14.0001 243.729 18.5281 237.067 25.7562C233.88 24.8456 230.514 24.358 227.034 24.358C220.795 24.358 214.922 25.9254 209.787 28.6878C204.653 25.9254 198.78 24.358 192.541 24.358C186.233 24.358 180.299 25.9602 175.125 28.7797C172.174 28.009 169.078 27.5988 165.886 27.5988C161.376 27.5988 157.058 28.4176 153.072 29.9146C147.456 17.0172 134.597 8 119.633 8Z" fill="white"/>
</g>
<defs>
<filter id="filter0_d_133_1502" x="0.704102" y="0" width="396.297" height="360.722" filterUnits="userSpaceOnUse" color-interpolation-filters="sRGB">
<feFlood flood-opacity="0" result="BackgroundImageFix"/>
<feColorMatrix in="SourceAlpha" type="matrix" values="0 0 0 0 0 0 0 0 0 0 0 0 0 0 0 0 0 0 127 0" result="hardAlpha"/>
<feOffset dx="2" dy="2"/>
<feGaussianBlur stdDeviation="5"/>
<feColorMatrix type="matrix" values="0 0 0 0 0.236979 0 0 0 0 0.445521 0 0 0 0 0.758333 0 0 0 0.4 0"/>
<feBlend mode="normal" in2="BackgroundImageFix" result="effect1_dropShadow_133_1502"/>
<feBlend mode="normal" in="SourceGraphic" in2="effect1_dropShadow_133_1502" result="shape"/>
</filter>
</defs>
</svg>
