<svg width="454" height="316" viewBox="0 0 454 316" fill="none" xmlns="http://www.w3.org/2000/svg">
<path d="M237.694 15.7514C254.544 13.9965 257.196 55.3403 256.416 76.2316C255.525 78.3207 251.937 82.7497 244.715 83.7524C235.689 85.0059 211.952 75.6049 210.949 72.4712C209.946 69.3375 210.28 35.4937 211.952 32.36C213.623 29.2263 216.632 17.945 237.694 15.7514Z" fill="#262A5A"/>
<path d="M294.529 109.449C293.192 107.569 284.834 101.928 284.165 101.615L271.127 109.449C274.693 116.03 285.503 128.314 300.213 124.804C318.6 120.417 336.319 96.2878 337.991 94.4076C339.662 92.5274 343.674 95.3477 347.686 96.2878C351.698 97.2279 352.032 95.3477 355.71 93.1541C359.387 90.9605 357.047 87.2001 356.713 84.6932C356.378 82.1863 352.701 81.2461 349.023 82.1862C345.346 83.1263 343.006 86.8867 339.328 87.2001C335.651 87.5135 336.988 84.6932 336.319 83.4397C335.651 82.1863 332.976 82.4996 333.645 84.6932C334.18 86.4481 331.862 88.5581 330.636 89.3937L301.884 106.942C299.878 108.405 295.599 110.954 294.529 109.449Z" fill="#F49F8A"/>
<path d="M176.833 120.206C178.342 114.152 184.753 106.543 187.77 103.495L205.871 112.008C202.602 115.266 195.689 122.16 194.18 123.674C192.672 125.187 196.066 127.457 197.951 128.403L230.005 154.888H211.527C209.013 153.416 202.25 149.654 195.312 146.375C186.638 142.276 179.096 133.448 177.588 131.556C176.079 129.664 174.948 127.773 176.833 120.206Z" fill="#F49F8A"/>
<path fill-rule="evenodd" clip-rule="evenodd" d="M222.651 66.5176H244.047L245.385 70.278C254.077 72.1582 275.072 81.1832 289.515 102.242C290.585 103.746 290.184 104.957 289.849 105.375C286.506 104.122 282.828 106.315 282.828 106.315L276.811 111.956C276.811 111.956 274.805 115.403 277.479 117.597C278.148 119.164 274.805 120.104 273.468 119.79C272.398 119.54 267.896 116.134 265.778 114.463C267.227 120.835 270.793 138.53 273.468 158.335L259.76 179.957L209.613 158.335L190.222 157.226C187.012 155.337 183.535 142.763 182.198 136.712C183.693 138.288 185.447 139.805 187.318 141.229C189.396 142.898 191.69 144.495 194.092 145.764C198.26 148.249 202.217 150.141 204.597 151.127L204.743 151.13C207.77 152.741 210.222 154.123 211.528 154.887H230.006L197.952 128.403C196.066 127.457 192.672 125.187 194.181 123.673C195.689 122.16 202.603 115.266 205.871 112.008L187.77 103.495C186.571 104.706 184.836 106.637 183.086 108.905C182.795 108.974 182.5 109.051 182.198 109.136C181.53 109.345 180.192 109.324 180.192 107.569C186.344 81.2459 209.724 71.9493 220.645 70.5914L222.651 66.5176Z" fill="#F9F6F1"/>
<path opacity="0.2" d="M235.021 71.2178C237.361 76.8584 235.021 77.1718 235.021 80.9322C235.021 84.6926 246.053 104.748 246.053 158.334" stroke="#262A5A" stroke-linecap="round"/>
<path d="M224.656 66.5173C225.994 51.2249 225.436 44.0592 224.991 42.3879C229.002 38.8782 236.469 50.1177 239.701 56.1762L240.369 66.8307C233.95 74.3516 227.219 69.7555 224.656 66.5173Z" fill="#F49F8A"/>
<path d="M240.035 57.4295C232.011 57.4295 226.662 47.6106 224.99 42.7012C221.982 42.0744 220.979 41.4477 220.31 38.0006C219.775 35.243 223.653 35.5981 225.659 36.1204C226.194 35.8697 226.105 32.2555 225.993 30.4798C240.703 31.4199 242.709 27.3461 243.378 26.406C243.913 25.6539 244.492 26.0926 244.715 26.406C245.161 27.4506 246.119 29.7277 246.387 30.4798C246.721 31.4199 250.064 57.4295 240.035 57.4295Z" fill="#F7B295"/>
<path fill-rule="evenodd" clip-rule="evenodd" d="M427.254 67.7432C427.254 62.2203 422.777 57.7432 417.254 57.7432H383.763C378.24 57.7432 373.763 62.2203 373.763 67.7432V261.461C373.763 266.984 378.24 271.461 383.763 271.461H417.254C422.777 271.461 427.254 266.984 427.254 261.461V67.7432ZM454 278.042C454 274.407 451.054 271.461 447.419 271.461H328.19C324.556 271.461 321.609 274.407 321.609 278.042C321.609 281.676 324.556 284.622 328.19 284.622H447.419C451.054 284.622 454 281.676 454 278.042Z" fill="#79BBDE"/>
<rect x="346.018" y="67.3979" width="94.2722" height="76.5818" rx="18" fill="#FEF3ED" stroke="#78A9CA" stroke-width="2"/>
<rect x="381.787" y="74.6655" width="50.8166" height="62.047" rx="5" fill="#CCE4EE"/>
<rect x="419.23" y="77.7988" width="10.0296" height="9.40106" rx="4.70053" fill="url(#paint0_linear_911_30)"/>
<rect x="419.23" y="90.334" width="10.0296" height="9.40106" rx="4.70053" fill="#9ABCED"/>
<rect x="394.491" y="77.7988" width="20.7278" height="3.76043" rx="1.88021" fill="#FEF3ED"/>
<rect x="394.491" y="93.4673" width="20.7278" height="3.76043" rx="1.88021" fill="#9ABCED"/>
<rect x="394.491" y="99.7349" width="20.7278" height="3.76043" rx="1.88021" fill="#9ABCED"/>
<rect x="394.491" y="106.002" width="20.7278" height="3.76043" rx="1.88021" fill="#9ABCED"/>
<rect x="394.491" y="83.4395" width="9.36095" height="3.76043" rx="1.88021" fill="#FEF3ED"/>
<rect x="405.858" y="83.4395" width="9.36095" height="3.76043" rx="1.88021" fill="#FEF3ED"/>
<rect x="353.704" y="74.6655" width="24.071" height="62.047" rx="5" fill="#A6D4E1"/>
<rect x="359.054" y="83.4395" width="13.3728" height="6.26738" rx="2" fill="#CCE4EE"/>
<rect x="359.054" y="93.4673" width="13.3728" height="6.26738" rx="2" fill="#CCE4EE"/>
<rect x="359.054" y="103.495" width="13.3728" height="6.26738" rx="2" fill="#CCE4EE"/>
<path d="M371.926 121.671C371.926 124.826 369.188 127.438 365.74 127.438C362.292 127.438 359.554 124.826 359.554 121.671C359.554 118.515 362.292 115.903 365.74 115.903C369.188 115.903 371.926 118.515 371.926 121.671Z" fill="#67BDF2" stroke="#4293C5"/>
<path d="M323.787 144.425C324.081 124.677 352.323 120.197 366.408 120.425V123.854C362.734 122.139 334.444 127.625 329.665 135.168C324.887 142.711 328.196 153.682 329.665 157.796C331.135 161.911 336.647 163.968 336.279 168.082C335.985 171.373 332.482 175.168 330.768 176.653C324.766 179.968 315.63 184.265 327.093 174.939C341.423 163.282 323.419 169.11 323.787 144.425Z" fill="#3178A4"/>
<rect x="23.0654" y="204.653" width="66.858" height="10.7743" rx="5.38716" fill="#FEF3ED" stroke="#78A9CA" stroke-width="2"/>
<rect x="75.8877" y="227.843" width="249.396" height="86.6096" rx="11" fill="#FEF3ED" stroke="#78A9CA" stroke-width="2"/>
<path d="M2 214.054H1V215.054C1 222.529 7.05973 228.589 14.5348 228.589H398.672C406.147 228.589 412.207 222.529 412.207 215.054V214.054H411.207H2Z" fill="#FEF3ED" stroke="#78A9CA" stroke-width="2"/>
<rect x="331.64" y="0.709961" width="6.01775" height="183.634" rx="3" fill="#D7EDF8"/>
<rect x="290.184" y="28.9131" width="70.8757" height="13.7882" rx="3" fill="#EBF8FE"/>
<rect x="304.225" y="32.0469" width="42.7929" height="7.52085" rx="3" fill="#A9DDFD"/>
<rect x="349.023" y="32.6733" width="2.67456" height="2.50695" rx="1.25348" fill="#A9DDFD"/>
<rect x="349.023" y="36.4336" width="2.67456" height="2.50695" rx="1.25348" fill="#A9DDFD"/>
<rect x="353.036" y="32.6733" width="2.67456" height="2.50695" rx="1.25348" fill="#A9DDFD"/>
<rect x="353.036" y="36.4336" width="2.67456" height="2.50695" rx="1.25348" fill="#A9DDFD"/>
<rect x="290.184" y="77.1719" width="70.8757" height="13.7882" rx="3" fill="#EBF8FE"/>
<rect x="304.225" y="80.3057" width="42.7929" height="7.52085" rx="3" fill="#A9DDFD"/>
<rect x="349.023" y="80.9321" width="2.67456" height="2.50695" rx="1.25348" fill="#A9DDFD"/>
<rect x="349.023" y="84.6929" width="2.67456" height="2.50695" rx="1.25348" fill="#A9DDFD"/>
<rect x="353.036" y="80.9321" width="2.67456" height="2.50695" rx="1.25348" fill="#A9DDFD"/>
<rect x="353.036" y="84.6929" width="2.67456" height="2.50695" rx="1.25348" fill="#A9DDFD"/>
<rect x="290.184" y="132.774" width="70.8757" height="13.7882" rx="3" fill="#EBF8FE"/>
<rect x="304.225" y="135.908" width="42.7929" height="7.52085" rx="3" fill="#A9DDFD"/>
<rect x="349.023" y="136.535" width="2.67456" height="2.50695" rx="1.25348" fill="#A9DDFD"/>
<rect x="349.023" y="140.295" width="2.67456" height="2.50695" rx="1.25348" fill="#A9DDFD"/>
<rect x="353.036" y="136.535" width="2.67456" height="2.50695" rx="1.25348" fill="#A9DDFD"/>
<rect x="353.036" y="140.295" width="2.67456" height="2.50695" rx="1.25348" fill="#A9DDFD"/>
<path d="M37.1038 197.192C34.9642 193.432 47.802 189.358 54.4884 187.791C65.521 185.284 123.358 201.266 116.338 206.28C109.317 211.294 69.5328 209.1 61.1748 207.847C52.8168 206.593 39.7784 201.893 37.1038 197.192Z" fill="#F0A77F"/>
<path opacity="0.4" d="M73.2104 198.446C68.9757 197.088 57.698 194.497 46.4648 194.999" stroke="#926148" stroke-linecap="round"/>
<path d="M58.8347 169.929C56.4944 171.809 52.8169 177.136 53.8199 188.418C53.9317 189.984 55.4915 191.865 56.4944 192.492C57.4974 193.118 60.8406 193.745 64.1838 193.118C66.8583 192.617 71.5388 197.505 73.5447 200.012C74.7706 201.997 78.3589 205.904 82.9057 205.653C87.4524 205.402 95.3869 200.43 98.2844 197.819L115 199.386L129.376 155.201C129.71 152.485 128.975 146.865 123.358 146.113C116.338 145.173 115 146.74 112.66 148.306C110.32 149.873 110.989 152.067 105.974 153.007C100.959 153.947 96.6128 152.694 89.2577 153.007C81.9027 153.32 79.2282 161.781 79.5625 163.975C79.8968 166.168 78.2252 168.049 75.885 168.989C73.5447 169.929 73.2104 168.362 69.5329 168.049C65.8554 167.735 61.1749 168.049 58.8347 169.929Z" fill="#521B21"/>
<path d="M169.16 151.753C166.486 151.753 119.681 152.067 110.654 163.035C113.997 170.556 127.705 169.407 132.719 168.675C141.523 167.108 159.599 164.288 161.471 165.542C163.343 166.795 155.119 194.894 150.773 208.787C147.987 209.309 141.947 210.479 140.074 210.98C138.202 210.98 137.288 212.025 137.066 212.547C136.954 213.278 137.066 214.991 138.403 215.994C137.868 214.741 138.18 213.383 138.403 212.86C138.737 212.547 139.406 212.108 139.406 212.86L142.08 218.501V212.86C142.303 212.443 142.816 211.795 143.083 212.547L144.755 218.188C144.532 216.621 144.287 213.424 145.089 213.174H146.761C155.787 213.487 155.787 212.234 156.456 211.607C157.125 210.98 155.787 209.1 157.125 208.16C169.495 192.178 172.503 154.574 172.503 153.32C172.503 152.067 171.835 151.753 169.16 151.753Z" fill="#F8B48F"/>
<path d="M72.8756 185.284C71.5383 186.851 67.8608 191.865 62.5117 193.118C66.5236 197.819 77.8904 200.639 83.9082 200.012C88.7224 199.511 92.1547 195.207 93.2691 193.118C97.5484 193.118 97.5038 196.252 96.9466 197.819C97.6153 198.55 99.688 199.636 102.63 198.132C114.398 192.617 109.762 181.837 105.973 177.136C105.305 179.33 103.916 180.824 101.627 182.15C97.9625 184.274 94.829 182.896 90.5946 182.15C85.2528 181.21 79.7849 178.39 77.8904 176.823C76.6646 176.405 74.0123 175.695 73.2099 176.196C72.207 176.823 72.8756 178.077 72.8756 178.077L74.8815 179.017C75.5502 179.33 74.2129 183.717 72.8756 185.284Z" fill="#F8B48F"/>
<path fill-rule="evenodd" clip-rule="evenodd" d="M149.666 166.055C148.649 169.365 148.834 173.088 151.776 178.39C154.548 183.387 155.28 187.365 155.793 192.03C159.419 179.384 162.731 166.386 161.471 165.542C160.533 164.914 155.531 165.308 149.666 166.055ZM155.585 212.401C155.925 212.205 156.102 212.002 156.257 211.822C156.324 211.745 156.386 211.673 156.456 211.607C156.735 211.345 156.665 210.864 156.585 210.325C156.474 209.573 156.346 208.707 157.125 208.16C167.736 194.45 171.459 164.829 172.303 155.893C178.002 155.125 183.746 154.571 187.882 154.261C218.305 153.425 302.353 158.209 395.16 184.031C398.169 184.239 404.387 189.421 405.19 208.473C406.006 227.866 405.493 234.169 405.274 236.856C405.224 237.469 405.19 237.894 405.19 238.243C405.19 240.124 398.503 244.824 396.832 245.137C396.274 245.242 372.947 245.207 341.929 245.161C279.969 245.068 187.324 244.929 184.205 245.764C179.524 247.018 164.145 244.197 155.453 234.483C151.821 229.187 153.547 221.495 155.193 214.161C155.325 213.571 155.457 212.984 155.585 212.401Z" fill="url(#paint1_linear_911_30)"/>
<path fill-rule="evenodd" clip-rule="evenodd" d="M155.793 192.03C154.031 198.178 152.194 204.242 150.772 208.787C147.986 209.309 141.946 210.479 140.074 210.981C138.202 210.981 137.288 212.025 137.065 212.547C137.053 212.627 137.044 212.719 137.038 212.82C133.204 212.665 129.963 212.387 128.373 211.921C124.094 210.667 104.748 205.34 95.6096 202.833C94.718 202.415 93.1356 201.391 93.938 200.639C94.1862 200.407 94.4942 200.108 94.8242 199.788L94.8244 199.788C95.5612 199.073 96.4081 198.252 96.9469 197.819C98.8413 198.655 104.101 198.697 108.648 192.178C109.54 190.716 110.119 185.974 105.305 178.704C106.976 174.421 110.386 165.291 110.654 163.035C110.662 163.054 110.671 163.073 110.679 163.092C114.066 170.55 127.717 169.405 132.719 168.676C133.383 168.558 134.1 168.432 134.858 168.302C138.624 168.356 144.064 169.08 149.109 169.919C149.155 172.307 149.912 175.032 151.775 178.39C154.548 183.387 155.28 187.365 155.793 192.03ZM156.257 211.822C156.102 212.002 155.925 212.205 155.585 212.401C155.55 212.562 155.514 212.724 155.478 212.886C155.007 212.897 154.51 212.908 153.992 212.918C155.562 212.625 155.95 212.177 156.257 211.822L156.257 211.822C156.323 211.745 156.386 211.673 156.456 211.607C156.49 211.575 156.52 211.539 156.544 211.5L156.544 211.5C156.52 211.539 156.491 211.575 156.456 211.607C156.386 211.673 156.323 211.745 156.257 211.822ZM156.736 208.557L156.736 208.557C156.401 209.078 156.498 209.736 156.585 210.325L156.585 210.325V210.325C156.593 210.383 156.602 210.441 156.61 210.497L156.61 210.497C156.602 210.44 156.593 210.383 156.585 210.325C156.498 209.736 156.401 209.078 156.736 208.557ZM139.424 212.899C139.079 212.89 138.737 212.88 138.399 212.869L138.402 212.861C138.737 212.547 139.405 212.109 139.405 212.861L139.424 212.899ZM143.208 212.969C142.831 212.965 142.455 212.96 142.08 212.955V212.861C142.303 212.443 142.816 211.795 143.083 212.547L143.208 212.969Z" fill="url(#paint2_linear_911_30)"/>
<defs>
<linearGradient id="paint0_linear_911_30" x1="419.23" y1="83.1574" x2="429.264" y2="83.0926" gradientUnits="userSpaceOnUse">
<stop stop-color="#FF6753"/>
<stop offset="1" stop-color="#FF8F50"/>
</linearGradient>
<linearGradient id="paint1_linear_911_30" x1="276.825" y1="136.593" x2="276.825" y2="274.592" gradientUnits="userSpaceOnUse">
<stop stop-color="#00B9FF"/>
<stop offset="1" stop-color="#0068B5"/>
</linearGradient>
<linearGradient id="paint2_linear_911_30" x1="93.7178" y1="191.498" x2="156.759" y2="191.016" gradientUnits="userSpaceOnUse">
<stop stop-color="#FF6753"/>
<stop offset="1" stop-color="#FF8F50"/>
</linearGradient>
</defs>
</svg>
