<svg width="29" height="28" viewBox="0 0 29 28" fill="none" xmlns="http://www.w3.org/2000/svg">
<path d="M25.6188 14.3538C25.6188 13.3872 25.4577 12.4206 25.2966 11.6151L27.7131 10.6485C27.8742 10.6485 27.8742 10.4874 27.8742 10.3263L27.552 9.68192L26.7465 7.90983L26.5854 7.74873L24.1689 8.71532C23.6856 7.90983 23.2023 7.10433 22.3968 6.45993L24.0078 4.36565V4.20455L23.3634 3.72125L21.9135 2.59356C21.7524 2.59356 21.7524 2.59356 21.5913 2.59356L19.9803 4.68784C19.1748 4.20455 18.3693 3.88235 17.4027 3.56015L17.7249 0.982567L17.5638 0.821467L14.9862 0.499268H14.8251C14.8251 0.499268 14.8251 0.499268 14.8251 0.660367L14.503 2.91575V3.07685C13.5364 3.07685 12.5698 3.23795 11.7643 3.39905L10.7977 0.982567L10.6365 0.821467C10.6365 0.821467 10.6366 0.821467 10.4755 0.821467L8.059 1.78806C8.059 1.78806 7.89789 1.78806 7.89789 1.94916V2.11026L8.70339 4.04345L8.8645 4.36565C8.059 4.84894 7.25347 5.33224 6.60907 6.13773L4.5148 4.52674H4.3537L2.74271 6.62103V6.78213V6.94323L4.5148 8.23202L4.83702 8.39312C4.35373 9.19862 4.03151 10.0041 3.70931 10.9707L1.13171 10.6485C0.970616 10.6485 0.970606 10.6485 0.970606 10.8096L0.648438 13.3872V13.5483C0.648438 13.5483 0.648447 13.5483 0.809546 13.5483L2.90381 13.8705H3.38709C3.38709 14.8371 3.54821 15.8037 3.70931 16.6092L1.29282 17.5758L1.13171 17.7369L2.09832 20.1534C2.09832 20.1534 2.09833 20.3145 2.25943 20.3145H2.42054L4.5148 19.509L4.83702 19.3479C5.32032 20.1534 5.80358 20.9588 6.60907 21.6032L4.99808 23.6975V23.8586L7.0924 25.4696H7.25351C7.25351 25.4696 7.25347 25.4696 7.41457 25.4696L8.8645 23.5364L9.02556 23.3753C9.83105 23.8586 10.6366 24.1808 11.6032 24.503L11.281 27.0806C11.281 27.2417 11.2809 27.2417 11.442 27.2417L14.0196 27.5639C14.1807 27.5639 14.1807 27.5639 14.1807 27.4028L14.3419 25.6307L14.503 24.8252C15.4696 24.8252 16.4361 24.6641 17.2416 24.503L18.2082 26.9195C18.2082 27.0806 18.3693 27.0806 18.5304 27.0806L20.3025 26.2751L20.9469 25.9529C21.108 25.9529 21.108 25.7918 21.108 25.6307L20.1414 23.2142C20.9469 22.7309 21.7524 22.2476 22.3968 21.4421L24.4911 23.0531C24.6522 23.0531 24.6522 23.0531 24.8133 23.0531L25.7799 21.7643L26.4243 20.7978C26.4243 20.6367 26.4243 20.6367 26.4243 20.4756L24.33 18.8646C24.8133 18.0591 25.1355 17.2536 25.4577 16.287L28.0353 16.6092C28.1964 16.6092 28.1964 16.6092 28.1964 16.4481L28.5186 13.8705C28.5186 13.7094 28.5185 13.7094 28.3574 13.7094L25.6188 14.3538ZM17.886 14.8371C17.5638 16.7703 15.7917 18.2202 13.8585 17.898C11.9253 17.5758 10.4755 15.8037 10.7977 13.8705C11.1199 11.9373 12.8919 10.4874 14.8251 10.8096C16.7583 11.1318 18.0471 12.9039 17.886 14.8371Z" fill="#E5E0EC"/>
</svg>
