<svg width="46" height="46" viewBox="0 0 46 46" fill="none" xmlns="http://www.w3.org/2000/svg">
<path d="M41.1429 22.241C41.1429 20.7911 40.9818 19.1801 40.6596 17.7302L44.3649 16.1192C44.526 16.1192 44.6871 15.797 44.526 15.6359L44.0427 14.6693L42.915 11.7695C42.915 11.6084 42.7539 11.6084 42.5928 11.6084H42.4317L38.7264 13.2194C37.9209 11.9306 37.1154 10.6418 35.9877 9.67525L38.4042 6.45327C38.5653 6.29217 38.5653 6.13107 38.4042 6.13107C38.4042 6.13107 38.4042 6.13107 38.2431 5.96997L37.2765 5.16448L34.8601 3.39239C34.699 3.23129 34.5379 3.39239 34.3768 3.39239L31.9603 6.61437C30.6715 5.80888 29.3827 5.32558 27.7717 4.84228L28.255 0.814806C28.255 0.653707 28.0939 0.653706 27.9328 0.653706L23.7442 0.17041C23.5831 0.17041 23.5831 0.170408 23.422 0.331507L23.2609 0.492606L22.7776 4.19789V4.52008C21.3277 4.52008 19.7167 4.68118 18.2668 5.00338L16.6559 1.2981C16.6559 1.137 16.4948 1.137 16.3337 1.137H16.1726L12.3062 2.74799C12.1451 2.74799 12.1451 2.90909 12.1451 2.90909V3.07019L13.4339 6.13107L13.7561 6.77547C12.4673 7.58096 11.1785 8.38646 10.2119 9.51415L6.98991 7.09767C6.82881 7.09767 6.82882 6.93657 6.66772 7.09767C6.66772 7.09767 6.66771 7.09767 6.50661 7.25877L3.92901 10.6418C3.92901 10.8029 3.92901 10.8029 3.92901 10.964C3.92901 10.964 3.92902 11.1251 4.09012 11.1251L6.8288 13.2194L7.3121 13.5416C6.50661 14.8304 6.0233 16.1192 5.54 17.7302L1.51253 17.2469C1.35143 17.2469 1.19033 17.2469 1.19033 17.408C1.19033 17.408 1.19033 17.408 1.19033 17.5691L0.707031 21.7577C0.707031 21.9188 0.707031 21.9188 0.707031 22.0799L0.86814 22.241L4.09012 22.7243L4.73451 22.8854C4.73451 24.3353 4.89561 25.9463 5.21781 27.3961L1.51253 29.0071C1.35143 29.0071 1.35144 29.1682 1.35144 29.3293V29.4904L2.96243 33.3568C2.96243 33.5179 3.12352 33.5179 3.12352 33.5179H3.28463L6.50661 32.2291L6.98991 32.068C7.79541 33.3568 8.6009 34.6456 9.72859 35.6122L7.3121 38.8342C7.3121 38.9953 7.151 38.9953 7.3121 39.1564C7.3121 39.1564 7.31211 39.3175 7.47321 39.3175L10.8563 41.8951C11.0174 41.8951 11.0174 41.8951 11.1785 41.8951C11.1785 41.8951 11.3396 41.8951 11.3396 41.734L13.595 38.8342L13.7561 38.6731C15.0449 39.4786 16.3337 39.9619 17.9447 40.4452L17.4613 44.4727C17.4613 44.6338 17.4613 44.7949 17.6224 44.7949C17.6224 44.7949 17.6224 44.7949 17.7835 44.7949L21.9721 45.2781C22.1332 45.2781 22.2943 45.2781 22.2943 45.117C22.2943 45.117 22.2943 45.117 22.2943 44.9559L22.6165 42.2173L22.7776 40.9285C24.2275 40.9285 25.8385 40.7674 27.2884 40.4452L28.8994 44.1505C28.8994 44.3116 29.2216 44.4726 29.3827 44.3116L32.2825 43.1839L33.2491 42.7006C33.4102 42.7006 33.5712 42.3784 33.4101 42.2173L31.7992 38.512C33.088 37.7065 34.3767 36.901 35.3433 35.7733L38.5653 38.1898C38.7264 38.3509 38.8875 38.3509 39.0486 38.1898L40.4985 36.2566L41.6262 34.8067C41.7873 34.6456 41.7873 34.4845 41.6262 34.3234L38.4042 31.9069C39.2097 30.6181 39.693 29.3293 40.1763 27.7183L44.2038 28.2016C44.3649 28.2016 44.526 28.2016 44.526 28.0405L45.0093 23.852C45.0093 23.6909 44.8482 23.5298 44.6871 23.5298L41.1429 22.241ZM28.8994 22.8854C28.5772 25.9463 25.6774 28.2016 22.6165 27.7183C19.5556 27.3961 17.3002 24.4964 17.7835 21.4355C18.1057 18.3746 21.0055 16.1192 24.0664 16.6025C27.1273 16.9247 29.2216 19.8245 28.8994 22.8854Z" fill="#E5E0EC"/>
</svg>
