<svg width="27" height="26" viewBox="0 0 27 26" fill="none" xmlns="http://www.w3.org/2000/svg">
<path d="M23.3594 13.5849C23.3594 12.6183 23.1983 11.8128 23.0372 11.0073L25.2925 10.0407C25.4536 10.0407 25.4537 9.87963 25.4537 9.71853L25.1315 9.07414L24.4871 7.46315L24.326 7.30204L22.0706 8.26865C21.5873 7.46315 21.104 6.81875 20.4596 6.17436L21.9095 4.24117V4.08006L21.2651 3.59677L19.8152 2.46907C19.6541 2.46907 19.6541 2.46907 19.493 2.46907L18.0431 4.40227C17.2376 3.91897 16.4321 3.59678 15.6266 3.43568L15.9488 1.01919L15.7877 0.858082L13.3712 0.535889H13.2101C13.2101 0.535889 13.2101 0.535886 13.2101 0.696985L12.8879 2.79128V2.95237C11.9213 2.95237 11.1159 3.11347 10.3104 3.27457L9.34375 1.01919L9.18264 0.858082C9.18264 0.858082 9.18266 0.858082 9.02156 0.858082L6.76616 1.82469C6.76616 1.82469 6.60507 1.82468 6.60507 1.98578V2.14688L7.41057 3.91897L7.57165 4.24117C6.76616 4.72447 6.12178 5.20777 5.47738 5.85216L3.54417 4.40227H3.38309L1.93318 6.33545V6.49655V6.65766L3.54417 7.94644L3.86639 8.10754C3.3831 8.91304 3.06089 9.71853 2.89979 10.524L0.483302 10.2018C0.483302 10.2018 0.322193 10.2018 0.322193 10.3629L0 12.7794V12.9405C0 12.9405 9.83031e-06 12.9405 0.161109 12.9405L2.09429 13.2627H2.57759C2.57759 14.2293 2.73869 15.0348 2.89979 15.8403L0.644411 16.8069L0.483302 16.968L1.44991 19.2234C1.44991 19.2234 1.44989 19.3845 1.61099 19.3845H1.7721L3.70528 18.579L4.02748 18.4179C4.51077 19.2234 4.99407 19.8678 5.63847 20.5122L4.18859 22.4454V22.6065L6.12177 24.0563H6.28288C6.28288 24.0563 6.28286 24.0563 6.44396 24.0563L7.73276 22.2843L7.89387 22.1232C8.69936 22.6065 9.50486 22.9287 10.3104 23.0898L9.98814 25.5062C9.98814 25.5062 9.98815 25.6673 10.1492 25.6673L12.5657 25.9895C12.5657 25.9895 12.7268 25.9895 12.7268 25.8284L12.8879 24.2174L13.049 23.412C14.0156 23.412 14.8211 23.2509 15.6266 23.0898L16.5932 25.3451C16.5932 25.5062 16.7543 25.5062 16.9154 25.5062L18.5264 24.8618L19.1708 24.5397C19.3319 24.5397 19.3319 24.3785 19.3319 24.2174L18.3653 21.9621C19.1708 21.4788 19.8152 20.9955 20.4596 20.3511L22.3928 21.801C22.5539 21.801 22.5539 21.801 22.715 21.801L23.5205 20.6733L24.1649 19.8678C24.1649 19.7067 24.1649 19.7067 24.1649 19.5456L22.2317 18.0957C22.715 17.2902 23.0372 16.4847 23.1983 15.6792L25.6148 16.0014C25.6148 16.0014 25.7759 16.0014 25.7759 15.8403L26.098 13.4238C26.098 13.2627 26.0981 13.2627 25.937 13.2627L23.3594 13.5849ZM16.271 13.9071C16.1099 15.6792 14.3378 16.968 12.5657 16.8069C10.7936 16.6458 9.50484 14.8737 9.66594 13.1016C9.82704 11.3295 11.5991 10.0407 13.3712 10.2018C15.1433 10.3629 16.4321 12.135 16.271 13.9071Z" fill="#E5E0EC"/>
</svg>
