<svg width="22" height="20" viewBox="0 0 22 20" fill="none" xmlns="http://www.w3.org/2000/svg">
<path d="M19.0089 10.1431C19.0089 14.1636 15.5218 17.4773 11.151 17.4773C6.78014 17.4773 3.29297 14.1636 3.29297 10.1431C3.29297 6.12247 6.78014 2.80884 11.151 2.80884C15.5218 2.80884 19.0089 6.12247 19.0089 10.1431Z" fill="#C8DAA8" stroke="#1E1D47"/>
<path d="M20.8742 6.77282C21.2308 7.67633 21.4481 8.64313 21.5018 9.65033L20.0039 9.73018C20.0112 9.86685 20.0149 10.0045 20.0149 10.1431C20.0149 10.2818 20.0112 10.4194 20.0039 10.5561L21.5018 10.636C21.4481 11.6432 21.2308 12.61 20.8742 13.5135L19.4789 12.9628C19.3776 13.2195 19.2627 13.4706 19.1349 13.7152L20.4644 14.4098C20.0088 15.282 19.4177 16.0808 18.717 16.7821L17.6559 15.7219C17.4589 15.9192 17.2513 16.1076 17.0339 16.2866L17.9873 17.4446C17.2362 18.063 16.3888 18.5812 15.4689 18.9769L14.8762 17.599C14.6184 17.7099 14.3538 17.8096 14.083 17.8976L14.5465 19.3242C13.6306 19.6218 12.6563 19.8023 11.6441 19.8468L11.5783 18.3482C11.4368 18.3544 11.2944 18.3576 11.151 18.3576C11.0077 18.3576 10.8652 18.3544 10.7238 18.3482L10.658 19.8468C9.64572 19.8023 8.67145 19.6218 7.7555 19.3242L8.21899 17.8976C7.94825 17.8096 7.68364 17.7099 7.42585 17.599L6.83313 18.9769C5.91328 18.5812 5.06587 18.063 4.31469 17.4446L5.26808 16.2866C5.05074 16.1076 4.84318 15.9192 4.64613 15.7219L3.58501 16.7821C2.88429 16.0808 2.29327 15.282 1.83761 14.4098L3.16712 13.7152C3.03933 13.4706 2.92442 13.2195 2.8231 12.9628L1.42784 13.5135C1.07125 12.61 0.853904 11.6432 0.800214 10.636L2.29809 10.5561C2.2908 10.4194 2.28711 10.2818 2.28711 10.1431C2.28711 10.0045 2.2908 9.86685 2.29809 9.73018L0.800214 9.65033C0.853904 8.64313 1.07125 7.67633 1.42784 6.77282L2.8231 7.32349C2.92442 7.06676 3.03933 6.8157 3.16712 6.57107L1.83761 5.87653C2.29327 5.00428 2.88429 4.20547 3.58501 3.50415L4.64613 4.56435C4.84318 4.36713 5.05074 4.17865 5.26808 3.99972L4.31469 2.84168C5.06587 2.22325 5.91328 1.70506 6.83313 1.30938L7.42585 2.6873C7.68363 2.57642 7.94825 2.47664 8.21899 2.38868L7.7555 0.962084C8.67144 0.664501 9.64572 0.483948 10.658 0.43951L10.7238 1.93807C10.8652 1.93186 11.0077 1.92871 11.151 1.92871C11.2944 1.92871 11.4368 1.93186 11.5783 1.93807L11.6441 0.43951C12.6563 0.483948 13.6306 0.664501 14.5465 0.962083L14.083 2.38868C14.3538 2.47664 14.6184 2.57642 14.8762 2.6873L15.4689 1.30938C16.3888 1.70506 17.2362 2.22326 17.9873 2.84168L17.0339 3.99972C17.2513 4.17865 17.4589 4.36713 17.6559 4.56435L18.717 3.50415C19.4177 4.20547 20.0088 5.00428 20.4644 5.87653L19.1349 6.57107C19.2627 6.8157 19.3776 7.06676 19.4789 7.32349L20.8742 6.77282Z" stroke="#1E1D47" stroke-width="3" stroke-linejoin="round" stroke-dasharray="1 3"/>
</svg>
