<svg width="319" height="206" viewBox="0 0 319 206" fill="none" xmlns="http://www.w3.org/2000/svg">
<path d="M208.631 153.2C208.631 156.332 206.125 158.838 202.993 158.838C199.86 158.838 197.354 156.332 197.354 153.2C197.354 150.067 199.86 147.561 202.993 147.561C206.125 147.561 208.631 150.067 208.631 153.2Z" fill="#E5E0EC"/>
<path d="M0.813477 205.557C0.813477 205.557 68.2728 146.18 165.519 147.586C262.766 149.1 318.179 205.557 318.179 205.557H0.813477Z" fill="#E5E0EC"/>
<path d="M42.712 187.016C44.8532 177.88 39.1833 168.739 30.048 166.597C20.9126 164.456 11.7712 170.126 9.62994 179.261C7.48873 188.397 13.1586 197.538 22.294 199.68C31.4293 201.821 40.5708 196.151 42.712 187.016Z" fill="#E5E0EC"/>
<path d="M277.098 205.557C286.44 205.557 294.013 197.984 294.013 188.641C294.013 179.299 286.44 171.726 277.098 171.726C267.756 171.726 260.183 179.299 260.183 188.641C260.183 197.984 267.756 205.557 277.098 205.557Z" fill="#E5E0EC"/>
<path d="M63.6422 145.145C63.6422 148.277 61.1362 150.783 58.0037 150.783C54.8712 150.783 52.3652 148.277 52.3652 145.145C52.3652 142.012 54.8712 139.506 58.0037 139.506C61.1362 139.506 63.6422 142.012 63.6422 145.145Z" fill="#E5E0EC"/>
<rect x="54.5" y="1.49976" width="201.604" height="186.275" fill="#F9F6F1" stroke="url(#paint0_linear_133_1209)" stroke-width="3"/>
<path fill-rule="evenodd" clip-rule="evenodd" d="M107.542 27.7128C104.909 24.9374 101.07 23.1891 96.7961 23.1891C88.8566 23.1891 82.4203 29.222 82.4203 36.6639C82.4203 39.3657 83.2686 41.8817 84.7292 43.9908C82.4614 46.373 81.083 49.5151 81.083 52.9591C81.083 57.0398 83.0183 60.6969 86.0754 63.1679C84.6094 65.2796 83.7576 67.8004 83.7576 70.5076C83.7576 73.8265 85.0377 76.865 87.1602 79.2133C85.8493 81.2453 85.0948 83.6281 85.0948 86.1761C85.0948 89.8462 86.6602 93.1737 89.1993 95.6038C87.8679 98.8823 87.1008 102.736 87.1008 106.859C87.1008 118.8 93.537 128.481 101.476 128.481C109.416 128.481 115.852 118.8 115.852 106.859C115.852 101.324 114.47 96.2752 112.196 92.4506C113.25 90.5767 113.846 88.4417 113.846 86.1761C113.846 82.8573 112.566 79.8187 110.444 77.4704C111.755 75.4384 112.509 73.0556 112.509 70.5076C112.509 68.2378 111.91 66.099 110.853 64.2226C112.502 64.8406 114.302 65.1805 116.187 65.1805C116.564 65.1805 116.937 65.1669 117.307 65.1402C119.644 69.6177 124.552 72.7014 130.228 72.7014C130.845 72.7014 131.453 72.6649 132.049 72.5943C134.585 76.4209 139.11 78.9688 144.269 78.9688C146.375 78.9688 148.376 78.5443 150.178 77.7817C151.824 78.5417 153.677 78.9686 155.636 78.9686C158.325 78.9686 160.814 78.1644 162.843 76.7986C164.327 77.3888 165.959 77.7152 167.672 77.7152C170.257 77.7152 172.657 76.9718 174.642 75.7006C176.901 78.4815 180.132 80.2223 183.719 80.2223C189.194 80.2223 193.838 76.1673 195.467 70.548C196.32 70.7077 197.2 70.7997 198.098 70.8179C198.153 73.1818 198.828 75.4024 199.977 77.3423C197.561 79.8442 196.089 83.1624 196.089 86.8028C196.089 88.8109 196.537 90.7209 197.344 92.45C195.303 94.8571 194.083 97.904 194.083 101.218C194.083 103.54 194.682 105.73 195.742 107.662C195.679 107.73 195.617 107.798 195.556 107.867C193.834 102.045 188.139 97.771 181.379 97.771C180.062 97.771 178.786 97.9331 177.571 98.2373C174.267 96.7555 170.285 95.8905 166 95.8905C154.553 95.8905 145.272 102.064 145.272 109.679C145.272 110.674 145.431 111.644 145.732 112.58C142.188 118.555 139.923 127.67 139.923 137.882C139.923 155.881 146.958 170.472 155.636 170.472C164.314 170.472 171.349 155.881 171.349 137.882C171.349 132.62 170.748 127.65 169.681 123.25C170.73 123.125 171.753 122.947 172.741 122.721C174.533 123.941 176.629 124.792 178.903 125.153C180.998 128.822 185.033 131.371 189.723 131.598C192.467 135.033 196.843 137.255 201.772 137.255C208.077 137.255 213.477 133.62 215.714 128.463C219.614 125.915 222.166 121.68 222.166 116.886C222.166 114.565 221.567 112.374 220.507 110.442C222.79 107.97 224.172 104.745 224.172 101.218C224.172 99.2098 223.724 97.2997 222.917 95.5707C224.958 93.1636 226.178 90.1167 226.178 86.8028C226.178 84.323 225.495 81.9927 224.296 79.9681C226.712 77.4663 228.184 74.1481 228.184 70.5077C228.184 68.4466 227.712 66.4888 226.864 64.724C228.54 62.4501 229.521 59.6923 229.521 56.7197C229.521 53.747 228.54 50.9891 226.864 48.7152C227.712 46.9503 228.184 44.9925 228.184 42.9314C228.184 35.1433 221.448 28.8298 213.139 28.8298C204.941 28.8298 198.274 34.9764 198.098 42.6214C191.687 42.751 186.263 46.6403 184.236 52.0312C184.065 52.0231 183.892 52.0191 183.719 52.0191C180.132 52.0191 176.901 53.7598 174.642 56.5406C172.657 55.2694 170.257 54.5259 167.672 54.5259C164.983 54.5259 162.494 55.3301 160.465 56.696C158.981 56.1058 157.349 55.7794 155.636 55.7794C155.186 55.7794 154.742 55.8019 154.305 55.8457C151.714 53.4779 148.174 52.0191 144.269 52.0191C143.653 52.0191 143.045 52.0555 142.448 52.1262C139.912 48.2995 135.388 45.7516 130.228 45.7516C129.851 45.7516 129.477 45.7652 129.108 45.792C127.259 42.2509 123.803 39.5816 119.631 38.62C118.53 32.9593 113.657 28.5325 107.542 27.7128Z" fill="#ED6976"/>
<ellipse cx="216.817" cy="55.1528" rx="6.01775" ry="5.64064" fill="#DF454F"/>
<ellipse cx="200.77" cy="119.08" rx="6.01775" ry="5.64064" fill="#DF454F"/>
<ellipse cx="100.474" cy="87.7432" rx="6.01775" ry="5.64064" fill="#DF454F"/>
<defs>
<linearGradient id="paint0_linear_133_1209" x1="53" y1="107.886" x2="257.682" y2="106.547" gradientUnits="userSpaceOnUse">
<stop stop-color="#FF6753"/>
<stop offset="1" stop-color="#FF8F50"/>
</linearGradient>
</defs>
</svg>
