<svg width="80" height="80" viewBox="0 0 80 80" fill="none" xmlns="http://www.w3.org/2000/svg">
<rect x="10" y="15.0001" width="61" height="42" rx="2" stroke="url(#paint0_linear_133_1408)" stroke-width="4" stroke-linecap="round" stroke-linejoin="round"/>
<rect x="29" y="62.0001" width="23" height="5" rx="2.5" fill="url(#paint1_linear_133_1408)"/>
<path fill-rule="evenodd" clip-rule="evenodd" d="M50 54.0001C49.4477 54.0001 49 53.5524 49 53.0001L49 32.0001C49 31.4478 49.4477 31.0001 50 31.0001H51C51.5523 31.0001 52 31.4478 52 32.0001V53.0001C52 53.5524 51.5523 54.0001 51 54.0001H50ZM40 54.0001C39.4477 54.0001 39 53.5524 39 53.0001L39 36.0001C39 35.4478 39.4477 35.0001 40 35.0001H41C41.5523 35.0001 42 35.4478 42 36.0001V53.0001C42 53.5524 41.5523 54.0001 41 54.0001H40ZM30 54.0001C29.4477 54.0001 29 53.5524 29 53.0001L29 40.0001C29 39.4478 29.4477 39.0001 30 39.0001H31C31.5523 39.0001 32 39.4478 32 40.0001L32 53.0001C32 53.5524 31.5523 54.0001 31 54.0001H30ZM25 54.0001C24.4477 54.0001 24 53.5524 24 53.0001V43.0001C24 42.4478 24.4477 42.0001 25 42.0001H26C26.5523 42.0001 27 42.4478 27 43.0001L27 53.0001C27 53.5524 26.5523 54.0001 26 54.0001H25ZM34 53.0001C34 53.5524 34.4477 54.0001 35 54.0001H36C36.5523 54.0001 37 53.5524 37 53.0001L37 40.0001C37 39.4478 36.5523 39.0001 36 39.0001H35C34.4477 39.0001 34 39.4478 34 40.0001L34 53.0001ZM44 53.0001C44 53.5524 44.4477 54.0001 45 54.0001H46C46.5523 54.0001 47 53.5524 47 53.0001V36.0001C47 35.4478 46.5523 35.0001 46 35.0001H45C44.4477 35.0001 44 35.4478 44 36.0001V53.0001ZM54 53.0001C54 53.5524 54.4477 54.0001 55 54.0001H56C56.5523 54.0001 57 53.5524 57 53.0001V32.0001C57 31.4478 56.5523 31.0001 56 31.0001H55C54.4477 31.0001 54 31.4478 54 32.0001L54 53.0001Z" fill="url(#paint2_linear_133_1408)"/>
<path d="M25.7451 37.57C25.5075 37.7108 25.4291 38.0175 25.5699 38.255C25.7106 38.4926 26.0173 38.571 26.2549 38.4303L25.7451 37.57ZM39.5 30.0001V29.5001H39.363L39.2451 29.57L39.5 30.0001ZM45.5 30.0001V30.5001H45.6447L45.767 30.4229L45.5 30.0001ZM55.4877 24.1103C55.5485 23.8409 55.3795 23.5732 55.1101 23.5124L50.7206 22.5212C50.4513 22.4604 50.1836 22.6295 50.1228 22.8988C50.062 23.1682 50.231 23.4358 50.5004 23.4967L54.4021 24.3777L53.5211 28.2795C53.4603 28.5488 53.6293 28.8165 53.8987 28.8773C54.1681 28.9382 54.4357 28.7691 54.4965 28.4997L55.4877 24.1103ZM26.2549 38.4303L39.7549 30.4303L39.2451 29.57L25.7451 37.57L26.2549 38.4303ZM39.5 30.5001H45.5V29.5001H39.5V30.5001ZM45.767 30.4229L55.267 24.4229L54.733 23.5774L45.233 29.5774L45.767 30.4229Z" fill="url(#paint3_linear_133_1408)"/>
<defs>
<linearGradient id="paint0_linear_133_1408" x1="40.3617" y1="4.19788" x2="40.3617" y2="73.294" gradientUnits="userSpaceOnUse">
<stop stop-color="#00B9FF"/>
<stop offset="1" stop-color="#0068B5"/>
</linearGradient>
<linearGradient id="paint1_linear_133_1408" x1="40.4511" y1="61.0434" x2="40.4511" y2="68.5538" gradientUnits="userSpaceOnUse">
<stop stop-color="#00B9FF"/>
<stop offset="1" stop-color="#0068B5"/>
</linearGradient>
<linearGradient id="paint2_linear_133_1408" x1="24" y1="44.1101" x2="57.0115" y2="43.8233" gradientUnits="userSpaceOnUse">
<stop stop-color="#FF6753"/>
<stop offset="1" stop-color="#FF8F50"/>
</linearGradient>
<linearGradient id="paint3_linear_133_1408" x1="26" y1="31.9801" x2="55.0077" y2="31.6163" gradientUnits="userSpaceOnUse">
<stop stop-color="#FF6753"/>
<stop offset="1" stop-color="#FF8F50"/>
</linearGradient>
</defs>
</svg>
