<svg width="80" height="80" viewBox="0 0 80 80" fill="none" xmlns="http://www.w3.org/2000/svg">
<path d="M24.3282 61.0001C15.9194 61.0001 9 54.1388 9 45.8678C9 39.3278 14.023 33.2791 20.5744 31.3531C23.908 23.7361 31.2506 19.0001 39.6564 19.0001C50.5144 19.0001 59.2825 26.8947 60.6154 37.2207C63.2709 37.8605 65.8079 39.43 67.4974 41.5442C69.1869 43.6585 69.9953 46.2668 70 48.956C70 55.574 64.5283 61.0001 57.8 61.0001" stroke="url(#paint0_linear_133_1399)" stroke-width="4" stroke-linecap="round" stroke-linejoin="round"/>
<path d="M48.5 31.0001C48.5 30.1717 47.8284 29.5001 47 29.5001C46.1716 29.5001 45.5 30.1717 45.5 31.0001H48.5ZM47 47.6139L46.5896 49.0567L48.5 49.6002V47.6139H47ZM39 45.3381L39.4104 43.8953L37.5 43.3518V45.3381H39ZM37.9393 65.0608C38.5251 65.6466 39.4749 65.6466 40.0607 65.0608L49.6066 55.5148C50.1924 54.9291 50.1924 53.9793 49.6066 53.3935C49.0208 52.8077 48.0711 52.8077 47.4853 53.3935L39 61.8788L30.5147 53.3935C29.9289 52.8077 28.9792 52.8077 28.3934 53.3935C27.8076 53.9793 27.8076 54.9291 28.3934 55.5148L37.9393 65.0608ZM45.5 31.0001V47.6139H48.5V31.0001H45.5ZM47.4104 46.1712L39.4104 43.8953L38.5896 46.7808L46.5896 49.0567L47.4104 46.1712ZM37.5 45.3381V64.0001H40.5V45.3381H37.5Z" fill="url(#paint1_linear_133_1399)"/>
<defs>
<linearGradient id="paint0_linear_133_1399" x1="39.3702" y1="10.9633" x2="39.3702" y2="74.0511" gradientUnits="userSpaceOnUse">
<stop stop-color="#00B9FF"/>
<stop offset="1" stop-color="#0068B5"/>
</linearGradient>
<linearGradient id="paint1_linear_133_1399" x1="39" y1="49.8101" x2="47.0034" y2="49.7984" gradientUnits="userSpaceOnUse">
<stop stop-color="#FF6753"/>
<stop offset="1" stop-color="#FF8F50"/>
</linearGradient>
</defs>
</svg>
