<svg width="80" height="80" viewBox="0 0 80 80" fill="none" xmlns="http://www.w3.org/2000/svg">
<path d="M16 39.9639C16 37.4737 16.8357 35.2431 18.1252 33.3499C18.0532 32.9046 17.9992 32.4672 17.9992 31.976C17.9992 27.0834 21.6458 23.1973 26.3079 22.3665C27.0816 18.7699 30.1744 16.0001 33.9929 16.0001C36.392 16.0001 38.5231 17.1184 39.9905 18.8079M16 39.9639C16 43.5525 17.7893 46.5719 20.3103 48.7626C20.1304 49.4736 19.9984 50.1825 19.9984 50.9473C19.9984 55.8859 24.0508 59.9338 28.9949 59.9338H29.1208C30.2844 62.1883 32.2996 63.9277 34.9925 63.9277C35.9254 63.9256 36.8483 63.7366 37.7068 63.372C38.5653 63.0074 39.3418 62.4745 39.9905 61.8049M16 39.9639H25.5962M39.9905 61.8049C40.6393 62.4745 41.4158 63.0074 42.2743 63.372C43.1328 63.7366 44.0557 63.9256 44.9886 63.9277C47.6835 63.9277 49.6967 62.1883 50.8622 59.9338H50.9862C55.6803 59.9338 59.5288 56.2833 59.9207 51.6962H59.9826C59.9826 51.5704 59.9287 51.4466 59.9207 51.3208C59.9287 51.197 59.9826 51.0711 59.9826 50.9473C59.9826 50.2064 59.7167 49.5734 59.5448 48.8884M39.9905 61.8049V51.3208M59.5448 48.8884C62.1378 46.6878 63.9811 43.6164 63.9811 39.9639C63.9811 37.4757 63.1454 35.2451 61.8559 33.3479C61.9279 32.9046 61.9819 32.4692 61.9819 31.976C61.9819 27.0834 58.3353 23.1992 53.6731 22.3645C52.8994 18.7719 49.8067 16.0001 45.9882 16.0001C43.5891 16.0001 41.458 17.1164 39.9905 18.8079M59.5448 48.8884V40.9217H51.7192V35.0639M39.9905 18.8079V25.3919M39.9905 31.976H33.9929V26.0109M39.9905 31.976V25.3919M39.9905 31.976V46.247M39.9905 25.3919H45.3218M39.9905 51.3208H47.4543M39.9905 51.3208V46.247M39.9905 46.247H33.0599V52.6374H27.1956" stroke="url(#paint0_linear_133_1433)" stroke-width="4" stroke-linecap="round" stroke-linejoin="round"/>
<ellipse cx="27.1957" cy="39.8566" rx="3.73186" ry="3.7277" fill="url(#paint1_linear_133_1433)"/>
<ellipse cx="27.1957" cy="52.6374" rx="3.73186" ry="3.7277" fill="url(#paint2_linear_133_1433)"/>
<ellipse cx="51.7192" cy="35.5965" rx="3.73186" ry="3.7277" fill="url(#paint3_linear_133_1433)"/>
<ellipse cx="33.5932" cy="24.9458" rx="3.73186" ry="3.7277" fill="url(#paint4_linear_133_1433)"/>
<ellipse cx="47.4545" cy="24.9458" rx="3.73186" ry="3.7277" fill="url(#paint5_linear_133_1433)"/>
<defs>
<linearGradient id="paint0_linear_133_1433" x1="39.8885" y1="6.82903" x2="39.8885" y2="78.8206" gradientUnits="userSpaceOnUse">
<stop stop-color="#00B9FF"/>
<stop offset="1" stop-color="#0068B5"/>
</linearGradient>
<linearGradient id="paint1_linear_133_1433" x1="23.4639" y1="40.3785" x2="30.9305" y2="40.3332" gradientUnits="userSpaceOnUse">
<stop stop-color="#FF6753"/>
<stop offset="1" stop-color="#FF8F50"/>
</linearGradient>
<linearGradient id="paint2_linear_133_1433" x1="23.4639" y1="53.1592" x2="30.9305" y2="53.114" gradientUnits="userSpaceOnUse">
<stop stop-color="#FF6753"/>
<stop offset="1" stop-color="#FF8F50"/>
</linearGradient>
<linearGradient id="paint3_linear_133_1433" x1="47.9873" y1="36.1184" x2="55.4539" y2="36.0731" gradientUnits="userSpaceOnUse">
<stop stop-color="#FF6753"/>
<stop offset="1" stop-color="#FF8F50"/>
</linearGradient>
<linearGradient id="paint4_linear_133_1433" x1="29.8613" y1="25.4677" x2="37.3279" y2="25.4225" gradientUnits="userSpaceOnUse">
<stop stop-color="#FF6753"/>
<stop offset="1" stop-color="#FF8F50"/>
</linearGradient>
<linearGradient id="paint5_linear_133_1433" x1="43.7227" y1="25.4677" x2="51.1893" y2="25.4225" gradientUnits="userSpaceOnUse">
<stop stop-color="#FF6753"/>
<stop offset="1" stop-color="#FF8F50"/>
</linearGradient>
</defs>
</svg>
