<svg width="80" height="80" viewBox="0 0 80 80" fill="none" xmlns="http://www.w3.org/2000/svg">
<path d="M69.7002 51.1774V24.6917C67.0262 22.4524 57.4428 17.9404 40.5006 17.9404C23.5585 17.9404 13.975 22.4524 11.3011 24.6917V51.1774C13.975 53.4168 23.5585 57.9287 40.5006 57.9287C57.4428 57.9287 67.0262 53.4168 69.7002 51.1774Z" fill="white" stroke="url(#paint0_linear_133_1440)" stroke-width="3" stroke-linecap="round" stroke-linejoin="round"/>
<path d="M66.6777 27.579L57.8037 30.2704V37.8962V45.2977L66.6777 47.9892M65.1627 30.2704V37.8962V45.2977" stroke="url(#paint1_linear_133_1440)" stroke-linecap="round"/>
<path d="M14.3213 27.579L23.1953 30.2704V37.8962V45.2977L14.3213 47.9892M15.8364 30.2704V37.8962V45.2977" stroke="url(#paint2_linear_133_1440)" stroke-linecap="round"/>
<path d="M69.7002 51.1774V24.6917C67.0262 22.4524 57.4428 17.9404 40.5006 17.9404C23.5585 17.9404 13.975 22.4524 11.3011 24.6917V51.1774C13.975 53.4168 23.5585 57.9287 40.5006 57.9287C57.4428 57.9287 67.0262 53.4168 69.7002 51.1774Z" stroke="url(#paint3_linear_133_1440)" stroke-width="3" stroke-linecap="round" stroke-linejoin="round"/>
<path fill-rule="evenodd" clip-rule="evenodd" d="M49.208 30.0077C49.208 36.5446 44.8029 40.9727 40.3589 40.9727C35.9149 40.9727 31.5098 36.5446 31.5098 30.0077C31.5098 23.4709 35.9149 19.0427 40.3589 19.0427C44.8029 19.0427 49.208 23.4709 49.208 30.0077ZM44.689 43.0109C43.3477 43.6318 41.8871 43.9727 40.3589 43.9727C38.7473 43.9727 37.2108 43.5935 35.8102 42.9067C35.5082 44.4176 34.868 45.6871 34.0055 46.7375C32.8055 48.1989 31.2342 49.1666 29.7243 49.8199C28.2108 50.4748 26.689 50.8438 25.5132 51.0695C24.929 51.1816 24.4195 51.2602 24.0415 51.3186L24.0414 51.3186L24.03 51.3203C23.8351 51.3504 23.6899 51.3729 23.5784 51.3924C23.5145 51.4036 23.4816 51.4106 23.4706 51.4129C23.2341 51.488 22.9915 51.5294 22.8206 51.5568C22.7241 51.5723 22.645 51.5842 22.5691 51.5956C22.4617 51.6117 22.3607 51.6269 22.2257 51.65C21.832 51.7173 21.4043 51.814 20.938 52.0068C20.0365 52.3796 18.8117 53.1864 17.5154 55.2035C16.1307 57.3581 15.423 58.9801 15.0518 60.3192C14.6831 61.6493 14.625 62.7731 14.625 64.0001C14.625 64.8285 13.9534 65.5001 13.125 65.5001C12.2966 65.5001 11.625 64.8285 11.625 64.0001C11.625 62.6593 11.6872 61.2261 12.1608 59.5178C12.6319 57.8185 13.4885 55.9206 14.9916 53.5816C16.5832 51.105 18.2663 49.8652 19.7915 49.2345C20.5385 48.9256 21.2037 48.7812 21.72 48.6929C21.8703 48.6672 22.0443 48.6408 22.1798 48.6202C22.2469 48.61 22.3045 48.6012 22.345 48.5947C22.4905 48.5714 22.5454 48.5581 22.5562 48.5555C22.5584 48.5549 22.5587 48.5549 22.5575 48.5553C22.7374 48.4953 22.9386 48.4589 23.0605 48.4375C23.2069 48.4118 23.3835 48.3846 23.5656 48.3565L23.5725 48.3554L23.5728 48.3554C23.9525 48.2968 24.4174 48.225 24.9477 48.1232C26.013 47.9188 27.2989 47.6005 28.533 47.0666C29.7705 46.5312 30.8865 45.8085 31.687 44.8337C32.4554 43.8978 32.9894 42.6636 33.003 40.9566C30.2656 38.3986 28.5098 34.4448 28.5098 30.0077C28.5098 22.2951 33.8148 16.0427 40.3589 16.0427C46.9029 16.0427 52.208 22.2951 52.208 30.0077C52.208 34.5708 50.3511 38.6227 47.4793 41.1711C47.534 42.7676 48.0549 43.9375 48.7908 44.8337C49.5912 45.8085 50.7073 46.5312 51.9448 47.0666C53.1788 47.6005 54.4647 47.9188 55.53 48.1232C56.0603 48.225 56.5252 48.2968 56.9049 48.3554L56.9052 48.3554L56.9121 48.3565C57.0942 48.3846 57.2709 48.4118 57.4173 48.4375C57.5392 48.4589 57.7403 48.4953 57.9202 48.5553C57.919 48.5549 57.9193 48.5549 57.9216 48.5555C57.9324 48.5581 57.9873 48.5714 58.1327 48.5947C58.1731 48.6012 58.2304 48.6099 58.2971 48.6201L58.2979 48.6202L58.2981 48.6202C58.4335 48.6408 58.6075 48.6672 58.7578 48.6929C59.274 48.7812 59.9393 48.9256 60.6863 49.2345C62.2114 49.8652 63.8945 51.105 65.4861 53.5816C66.9893 55.9206 67.8459 57.8185 68.3169 59.5178C68.7905 61.2261 68.8528 62.6593 68.8528 64.0001C68.8528 64.8285 68.1812 65.5001 67.3528 65.5001C66.5243 65.5001 65.8528 64.8285 65.8528 64.0001C65.8528 62.7731 65.7947 61.6493 65.426 60.3192C65.0547 58.9801 64.347 57.3581 62.9624 55.2035C61.6661 53.1864 60.4412 52.3796 59.5398 52.0068C59.0735 51.814 58.6457 51.7173 58.252 51.65C58.117 51.6269 58.016 51.6117 57.9086 51.5956C57.8328 51.5842 57.7537 51.5723 57.6572 51.5568C57.4863 51.5294 57.2437 51.488 57.0071 51.4129C56.9962 51.4106 56.9632 51.4036 56.8993 51.3924C56.7879 51.3729 56.6427 51.3504 56.4477 51.3203L56.4363 51.3186L56.4362 51.3186C56.0582 51.2602 55.5487 51.1816 54.9645 51.0695C53.7887 50.8438 52.267 50.4748 50.7535 49.8199C49.2435 49.1666 47.6723 48.1989 46.4723 46.7375C45.6296 45.7113 44.9992 44.476 44.689 43.0109Z" fill="url(#paint4_linear_133_1440)"/>
<path d="M36.875 22.0001H29C26.7909 22.0001 25 23.791 25 26.0001V32.0001C25 34.2093 26.7909 36.0001 29 36.0001H33.9111C35.6717 36.0001 37.1847 34.8261 37.955 33.2429C38.5624 31.9945 39.3052 30.9092 40 30.9092C40.6948 30.9092 41.4376 31.9945 42.045 33.2429C42.8153 34.8261 44.3283 36.0001 46.0889 36.0001H51C53.2091 36.0001 55 34.2093 55 32.0001V26.0001C55 23.791 53.2091 22.0001 51 22.0001H36.875Z" fill="url(#paint5_linear_133_1440)"/>
<defs>
<linearGradient id="paint0_linear_133_1440" x1="40.6249" y1="10.2886" x2="40.6249" y2="70.3545" gradientUnits="userSpaceOnUse">
<stop stop-color="#00B9FF"/>
<stop offset="1" stop-color="#0068B5"/>
</linearGradient>
<linearGradient id="paint1_linear_133_1440" x1="62.2596" y1="23.6734" x2="62.2596" y2="54.3314" gradientUnits="userSpaceOnUse">
<stop stop-color="#00B9FF"/>
<stop offset="1" stop-color="#0068B5"/>
</linearGradient>
<linearGradient id="paint2_linear_133_1440" x1="18.7394" y1="23.6734" x2="18.7394" y2="54.3314" gradientUnits="userSpaceOnUse">
<stop stop-color="#00B9FF"/>
<stop offset="1" stop-color="#0068B5"/>
</linearGradient>
<linearGradient id="paint3_linear_133_1440" x1="40.6249" y1="10.2886" x2="40.6249" y2="70.3545" gradientUnits="userSpaceOnUse">
<stop stop-color="#00B9FF"/>
<stop offset="1" stop-color="#0068B5"/>
</linearGradient>
<linearGradient id="paint4_linear_133_1440" x1="40.1171" y1="6.5789" x2="40.1171" y2="80.8683" gradientUnits="userSpaceOnUse">
<stop stop-color="#00B9FF"/>
<stop offset="1" stop-color="#0068B5"/>
</linearGradient>
<linearGradient id="paint5_linear_133_1440" x1="25" y1="29.9801" x2="55.0077" y2="29.5908" gradientUnits="userSpaceOnUse">
<stop stop-color="#FF6753"/>
<stop offset="1" stop-color="#FF8F50"/>
</linearGradient>
</defs>
</svg>
