<svg width="80" height="80" viewBox="0 0 80 80" fill="none" xmlns="http://www.w3.org/2000/svg">
<path d="M64.5 30.0001H15.5C13.567 30.0001 12 28.4331 12 26.5001V19.5001C12 17.5671 13.567 16.0001 15.5 16.0001H64.5C66.433 16.0001 68 17.5671 68 19.5001V26.5001C68 28.4331 66.433 30.0001 64.5 30.0001ZM59.25 20.3751C57.8002 20.3751 56.625 21.5504 56.625 23.0001C56.625 24.4499 57.8002 25.6251 59.25 25.6251C60.6998 25.6251 61.875 24.4499 61.875 23.0001C61.875 21.5504 60.6998 20.3751 59.25 20.3751ZM52.25 20.3751C50.8002 20.3751 49.625 21.5504 49.625 23.0001C49.625 24.4499 50.8002 25.6251 52.25 25.6251C53.6998 25.6251 54.875 24.4499 54.875 23.0001C54.875 21.5504 53.6998 20.3751 52.25 20.3751ZM64.5 47.5001H15.5C13.567 47.5001 12 45.9331 12 44.0001V37.0001C12 35.0671 13.567 33.5001 15.5 33.5001H64.5C66.433 33.5001 68 35.0671 68 37.0001V44.0001C68 45.9331 66.433 47.5001 64.5 47.5001ZM59.25 37.8751C57.8002 37.8751 56.625 39.0504 56.625 40.5001C56.625 41.9499 57.8002 43.1251 59.25 43.1251C60.6998 43.1251 61.875 41.9499 61.875 40.5001C61.875 39.0504 60.6998 37.8751 59.25 37.8751ZM52.25 37.8751C50.8002 37.8751 49.625 39.0504 49.625 40.5001C49.625 41.9499 50.8002 43.1251 52.25 43.1251C53.6998 43.1251 54.875 41.9499 54.875 40.5001C54.875 39.0504 53.6998 37.8751 52.25 37.8751ZM64.5 65.0001H15.5C13.567 65.0001 12 63.4331 12 61.5001V54.5001C12 52.5671 13.567 51.0001 15.5 51.0001H64.5C66.433 51.0001 68 52.5671 68 54.5001V61.5001C68 63.4331 66.433 65.0001 64.5 65.0001ZM59.25 55.3751C57.8002 55.3751 56.625 56.5504 56.625 58.0001C56.625 59.4499 57.8002 60.6251 59.25 60.6251C60.6998 60.6251 61.875 59.4499 61.875 58.0001C61.875 56.5504 60.6998 55.3751 59.25 55.3751ZM52.25 55.3751C50.8002 55.3751 49.625 56.5504 49.625 58.0001C49.625 59.4499 50.8002 60.6251 52.25 60.6251C53.6998 60.6251 54.875 59.4499 54.875 58.0001C54.875 56.5504 53.6998 55.3751 52.25 55.3751Z" fill="url(#paint0_linear_133_1450)"/>
<path d="M54.928 71.9873C54.2693 71.9834 53.6298 71.7655 53.1058 71.3666L50.3116 69.2886C49.6668 68.786 49.239 68.0557 49.116 67.2477C48.993 66.4396 49.1841 65.6152 49.6502 64.9436C49.8968 64.5796 50.0535 64.1623 50.1075 63.7261C50.1614 63.2898 50.1111 62.8469 49.9607 62.4338L49.8797 62.2179C49.7749 61.844 49.5834 61.5001 49.3207 61.2141C49.058 60.928 48.7316 60.708 48.3679 60.5717H48.1519C47.3634 60.3067 46.7114 59.7414 46.3373 58.9986C45.9633 58.2559 45.8974 57.3956 46.1541 56.6046L47.261 53.0963C47.3629 52.6898 47.5505 52.3098 47.8112 51.9816C48.0719 51.6535 48.3998 51.3849 48.7728 51.1937C49.1202 51.0147 49.5003 50.9081 49.8901 50.8803C50.2798 50.8525 50.6712 50.904 51.0405 51.0317C51.4426 51.167 51.8717 51.2021 52.2904 51.1339C52.7091 51.0657 53.1049 50.8963 53.4432 50.6404L53.6187 50.5055C53.925 50.2612 54.1725 49.9513 54.343 49.5987C54.5136 49.246 54.6028 48.8597 54.6041 48.468V48.1441C54.6004 47.3185 54.9232 46.5249 55.5022 45.936C56.0811 45.3472 56.8693 45.0108 57.6952 45.0001H61.1373C61.5391 45.0012 61.9367 45.0816 62.3073 45.2368C62.678 45.3919 63.0143 45.6187 63.297 45.9042C63.8913 46.5084 64.2214 47.3237 64.2149 48.1711V48.5489C64.208 48.921 64.2887 49.2895 64.4505 49.6247C64.6123 49.9599 64.8506 50.2523 65.1463 50.4785L65.2947 50.5865C65.5977 50.8136 65.9511 50.9641 66.3248 51.0252C66.6985 51.0862 67.0814 51.0561 67.441 50.9373L67.8999 50.7889C68.2887 50.66 68.6996 50.6108 69.1079 50.6441C69.5161 50.6774 69.9135 50.7925 70.2763 50.9827C70.6391 51.1728 70.9599 51.4341 71.2195 51.7509C71.4792 52.0676 71.6723 52.4334 71.7874 52.8264L72.8538 56.2268C73.1005 57.0126 73.0331 57.8635 72.6656 58.6007C72.2982 59.3379 71.6592 59.9041 70.883 60.1804L70.6131 60.2748C70.216 60.4048 69.8569 60.6303 69.5675 60.9314C69.278 61.2326 69.0669 61.6002 68.9528 62.002C68.8453 62.3755 68.8199 62.7678 68.8781 63.1521C68.9363 63.5364 69.0769 63.9035 69.2902 64.2285L69.6412 64.7412C70.1066 65.4165 70.296 66.2442 70.1705 67.0546C70.045 67.8649 69.6142 68.5966 68.9663 69.0996L66.2531 71.1911C65.9253 71.4417 65.5497 71.6226 65.1494 71.7226C64.749 71.8226 64.3324 71.8396 63.9253 71.7726C63.5181 71.7056 63.129 71.556 62.7818 71.333C62.4346 71.1101 62.1368 70.8184 61.9067 70.476L61.7447 70.2466C61.5236 69.9145 61.222 69.6438 60.8679 69.4597C60.5138 69.2757 60.1189 69.1843 59.7199 69.1941C59.3393 69.204 58.9662 69.3031 58.6309 69.4836C58.2956 69.6641 58.0075 69.9208 57.7897 70.2331L57.4792 70.6784C57.249 71.0232 56.9506 71.3172 56.6023 71.5423C56.2541 71.7674 55.8635 71.9188 55.4545 71.9873C55.2794 72.0044 55.1031 72.0044 54.928 71.9873Z" fill="url(#paint1_linear_133_1450)"/>
<path d="M59.5 63.0001C58.61 63.0001 57.74 62.7362 56.9999 62.2417C56.2599 61.7473 55.6831 61.0445 55.3425 60.2222C55.0019 59.3999 54.9128 58.4951 55.0865 57.6222C55.2601 56.7493 55.6887 55.9475 56.318 55.3181C56.9474 54.6888 57.7492 54.2602 58.6221 54.0866C59.495 53.913 60.3998 54.0021 61.2221 54.3427C62.0443 54.6833 62.7471 55.26 63.2416 56.0001C63.7361 56.7401 64 57.6101 64 58.5001C64 59.6936 63.5259 60.8382 62.682 61.6821C61.8381 62.526 60.6935 63.0001 59.5 63.0001Z" fill="white"/>
<defs>
<linearGradient id="paint0_linear_133_1450" x1="39.8809" y1="6.62382" x2="39.8809" y2="80.2262" gradientUnits="userSpaceOnUse">
<stop stop-color="#00B9FF"/>
<stop offset="1" stop-color="#0068B5"/>
</linearGradient>
<linearGradient id="paint1_linear_133_1450" x1="46" y1="60.3901" x2="73.0105" y2="60.2266" gradientUnits="userSpaceOnUse">
<stop stop-color="#FF6753"/>
<stop offset="1" stop-color="#FF8F50"/>
</linearGradient>
</defs>
</svg>
