<svg width="80" height="80" viewBox="0 0 80 80" fill="none" xmlns="http://www.w3.org/2000/svg">
<path d="M24.3282 58.0001C15.9194 58.0001 9 51.1388 9 42.8678C9 36.3278 14.023 30.2791 20.5744 28.3531C23.908 20.7361 31.2506 16.0001 39.6564 16.0001C50.5144 16.0001 59.2825 23.8947 60.6154 34.2207C63.2709 34.8605 65.8079 36.43 67.4974 38.5442C69.1869 40.6585 69.9953 43.2668 70 45.956C70 52.574 64.5283 58.0001 57.8 58.0001" stroke="url(#paint0_linear_133_1420)" stroke-width="4" stroke-linecap="round" stroke-linejoin="round"/>
<path fill-rule="evenodd" clip-rule="evenodd" d="M40.0237 66.7421C40.3208 66.9031 40.6792 66.9031 40.9763 66.7421L47.448 63.2367C49.4287 62.1662 51.0852 60.568 52.2395 58.6135C53.3938 56.6591 54.0024 54.4222 54 52.143V37.2858C53.9994 36.6798 53.7622 36.0988 53.3403 35.6703C52.9185 35.2417 52.3465 35.0007 51.75 35.0001H29.25C28.6535 35.0007 28.0815 35.2417 27.6597 35.6703C27.2378 36.0988 27.0006 36.6798 27 37.2858V52.143C26.9976 54.4222 27.6062 56.6591 28.7605 58.6135C29.9148 60.568 31.5713 62.1662 33.552 63.2367L40.0237 66.7421ZM29.25 38.2858C29.25 37.7336 29.6977 37.2858 30.25 37.2858H50.75C51.3023 37.2858 51.75 37.7336 51.75 38.2858V52.143C51.7521 54.0081 51.2541 55.8386 50.3094 57.4379C49.3648 59.0372 48.0092 60.3449 46.3882 61.2207L40.9763 64.1514C40.6791 64.3123 40.3209 64.3122 40.0238 64.1513L34.6118 61.2196C32.9909 60.3439 31.6355 59.0363 30.6909 57.4372C29.7462 55.8381 29.2481 54.0079 29.25 52.143V38.2858ZM37.5999 50.9122C37.9956 51.3392 38.6711 51.3392 39.0668 50.9122L44.739 44.7916C45.1348 44.3645 45.8102 44.3645 46.206 44.7916L46.3701 44.9686C46.7254 45.3521 46.7254 45.9446 46.3701 46.3281L39.0668 54.2087C38.6711 54.6357 37.9956 54.6357 37.5999 54.2087L34.6299 51.004C34.2746 50.6205 34.2746 50.028 34.6299 49.6445L34.794 49.4674C35.1898 49.0404 35.8652 49.0404 36.261 49.4674L37.5999 50.9122Z" fill="url(#paint1_linear_133_1420)"/>
<defs>
<linearGradient id="paint0_linear_133_1420" x1="39.3702" y1="7.96329" x2="39.3702" y2="71.0511" gradientUnits="userSpaceOnUse">
<stop stop-color="#00B9FF"/>
<stop offset="1" stop-color="#0068B5"/>
</linearGradient>
<linearGradient id="paint1_linear_133_1420" x1="27" y1="53.1619" x2="54.0107" y2="53.0233" gradientUnits="userSpaceOnUse">
<stop stop-color="#FF6753"/>
<stop offset="1" stop-color="#FF8F50"/>
</linearGradient>
</defs>
</svg>
