<svg width="80" height="80" viewBox="0 0 80 80" fill="none" xmlns="http://www.w3.org/2000/svg">
<path fill-rule="evenodd" clip-rule="evenodd" d="M18 37.3335C18 26.6559 26.6558 18.0001 37.3333 18.0001C48.0108 18.0001 56.6667 26.6559 56.6667 37.3335C56.6667 42.5599 54.5928 47.3019 51.2231 50.7816C51.1396 50.8424 51.0596 50.9105 50.9842 50.9859C50.9089 51.0613 50.8408 51.1412 50.78 51.2247C47.3004 54.5935 42.559 56.6668 37.3333 56.6668C26.6558 56.6668 18 48.011 18 37.3335ZM52.3571 55.1872C48.2979 58.6065 43.0562 60.6668 37.3333 60.6668C24.4467 60.6668 14 50.2201 14 37.3335C14 24.4468 24.4467 14.0001 37.3333 14.0001C50.22 14.0001 60.6667 24.4468 60.6667 37.3335C60.6667 43.0571 58.6058 48.2995 55.1856 52.3589L65.4127 62.5859C66.1937 63.367 66.1937 64.6333 65.4127 65.4144C64.6316 66.1954 63.3653 66.1954 62.5842 65.4144L52.3571 55.1872Z" fill="url(#paint0_linear_133_1425)"/>
<path fill-rule="evenodd" clip-rule="evenodd" d="M33 30.5001C33 29.6717 33.6716 29.0001 34.5 29.0001H48.5C49.3284 29.0001 50 29.6717 50 30.5001C50 31.3285 49.3284 32.0001 48.5 32.0001H34.5C33.6716 32.0001 33 31.3285 33 30.5001ZM26 42.5001C26 41.6717 26.6716 41.0001 27.5 41.0001H41.5C42.3284 41.0001 43 41.6717 43 42.5001C43 43.3285 42.3284 44.0001 41.5 44.0001H27.5C26.6716 44.0001 26 43.3285 26 42.5001ZM27.5 35.0001C26.6716 35.0001 26 35.6717 26 36.5001C26 37.3285 26.6716 38.0001 27.5 38.0001H48.5C49.3284 38.0001 50 37.3285 50 36.5001C50 35.6717 49.3284 35.0001 48.5 35.0001H27.5Z" fill="url(#paint1_linear_133_1425)"/>
<defs>
<linearGradient id="paint0_linear_133_1425" x1="39.8886" y1="4.04976" x2="39.8886" y2="82.1585" gradientUnits="userSpaceOnUse">
<stop stop-color="#00B9FF"/>
<stop offset="1" stop-color="#0068B5"/>
</linearGradient>
<linearGradient id="paint1_linear_133_1425" x1="26" y1="37.5501" x2="50.0079" y2="37.3175" gradientUnits="userSpaceOnUse">
<stop stop-color="#FF6753"/>
<stop offset="1" stop-color="#FF8F50"/>
</linearGradient>
</defs>
</svg>
