<svg width="220" height="309" viewBox="0 0 220 309" fill="none" xmlns="http://www.w3.org/2000/svg">
<path fill-rule="evenodd" clip-rule="evenodd" d="M145.995 36.1582C154.97 36.1582 162.245 28.8826 162.245 19.9076C162.245 10.9326 154.97 3.65698 145.995 3.65698C137.02 3.65698 129.744 10.9326 129.744 19.9076C129.744 28.8826 137.02 36.1582 145.995 36.1582ZM148.683 38.9719C158.042 37.6641 165.245 29.627 165.245 19.9076C165.245 9.27577 156.627 0.656982 145.995 0.656982C135.363 0.656982 126.744 9.27577 126.744 19.9076C126.744 30.3324 135.031 38.8218 145.376 39.1484L117.044 109.233C116.941 109.231 116.838 109.23 116.734 109.23C106.102 109.23 97.4833 117.849 97.4833 128.481C97.4833 137.801 104.107 145.574 112.903 147.35L56.672 194.703L56.6843 194.718C46.4037 195.116 38.1914 203.576 38.1914 213.954C38.1914 224.586 46.8102 233.204 57.442 233.204C67.0721 233.204 75.0506 226.133 76.4686 216.9L157.007 216.953C158.448 226.161 166.414 233.204 176.026 233.204L176.115 233.204C176.16 233.204 176.205 233.204 176.25 233.203C176.335 233.202 176.42 233.201 176.505 233.198L187.361 250.5L5.62132 250.5L12.6066 243.515C13.1924 242.929 13.1924 241.979 12.6066 241.393C12.0208 240.808 11.0711 240.808 10.4853 241.393L0.939339 250.939C0.353554 251.525 0.353554 252.475 0.939339 253.061L10.4853 262.607C11.0711 263.192 12.0208 263.192 12.6066 262.607C13.1924 262.021 13.1924 261.071 12.6066 260.485L5.62132 253.5L189 253.5V253.112L199.715 270.189C189.525 270.685 181.416 279.103 181.416 289.416C181.416 300.048 190.035 308.667 200.667 308.667C211.298 308.667 219.917 300.048 219.917 289.416C219.917 279.545 212.487 271.408 202.914 270.295L203.208 270.111L179.816 232.831C188.633 231.071 195.276 223.288 195.276 213.954C195.276 203.322 186.658 194.703 176.026 194.703C165.394 194.703 156.775 203.322 156.775 213.953L76.6926 213.9C76.6669 204.49 69.8901 196.668 60.9506 195.022L117.112 147.728C126.34 147.55 133.977 140.88 135.646 132.095L156.775 170.832L156.791 170.824C156.78 171.082 156.775 171.342 156.775 171.602C156.775 182.234 165.394 190.853 176.026 190.853C186.658 190.853 195.276 182.234 195.276 171.602C195.276 160.971 186.658 152.352 176.026 152.352C167.322 152.352 159.968 158.127 157.587 166.055L136.308 127.044L135.945 127.242C135.38 118.338 128.761 111.079 120.158 109.534L148.683 38.9719ZM116.734 144.732C125.709 144.732 132.984 137.456 132.984 128.481C132.984 119.506 125.709 112.23 116.734 112.23C107.759 112.23 100.483 119.506 100.483 128.481C100.483 137.456 107.759 144.732 116.734 144.732ZM192.276 171.602C192.276 180.577 185.001 187.853 176.026 187.853C167.051 187.853 159.775 180.577 159.775 171.602C159.775 162.627 167.051 155.352 176.026 155.352C185.001 155.352 192.276 162.627 192.276 171.602ZM176.026 230.204C185.001 230.204 192.276 222.929 192.276 213.954C192.276 204.979 185.001 197.703 176.026 197.703C167.051 197.703 159.775 204.979 159.775 213.954C159.775 222.929 167.051 230.204 176.026 230.204ZM73.6926 213.954C73.6926 222.929 66.417 230.204 57.442 230.204C48.4671 230.204 41.1914 222.929 41.1914 213.954C41.1914 204.979 48.4671 197.703 57.442 197.703C66.417 197.703 73.6926 204.979 73.6926 213.954ZM216.917 289.416C216.917 298.391 209.642 305.667 200.667 305.667C191.692 305.667 184.416 298.391 184.416 289.416C184.416 280.441 191.692 273.165 200.667 273.165C209.642 273.165 216.917 280.441 216.917 289.416ZM116.5 118C121.662 118 125.787 121.544 126.421 126.462C127.684 126.766 128.67 127.762 129.474 128.769C130.277 129.776 130.998 131.335 131 132.615C131 135.767 128.093 138 124.895 138H109.632C105.634 138 102 135.016 102 131.077C102 127.963 104.228 125.071 107.342 124.154C108.927 120.527 112.504 118 116.5 118ZM186.263 169.462C185.608 164.544 181.34 161 176 161C171.866 161 168.166 163.527 166.526 167.154C163.304 168.071 161 170.963 161 174.077C161 178.016 164.759 181 168.895 181H184.684C187.993 181 191 178.767 191 175.615C190.998 174.335 190.252 172.776 189.421 171.769C188.59 170.762 187.569 169.766 186.263 169.462ZM176 204C181.34 204 185.608 207.544 186.263 212.462C187.569 212.766 188.59 213.762 189.421 214.769C190.252 215.776 190.998 217.335 191 218.615C191 221.767 187.993 224 184.684 224H168.895C164.759 224 161 221.016 161 217.077C161 213.963 163.304 211.071 166.526 210.154C168.166 206.527 171.866 204 176 204ZM67.4211 212.462C66.7874 207.544 62.662 204 57.5 204C53.5038 204 49.927 206.527 48.3421 210.154C45.2275 211.071 43 213.963 43 217.077C43 221.016 46.6339 224 50.6316 224H65.8947C69.0934 224 72 221.767 72 218.615C71.9978 217.335 71.2769 215.776 70.4737 214.769C69.6705 213.762 68.6835 212.766 67.4211 212.462Z" fill="url(#paint0_linear_133_1475)"/>
<defs>
<linearGradient id="paint0_linear_133_1475" x1="0.5" y1="176.223" x2="220.006" y2="175.276" gradientUnits="userSpaceOnUse">
<stop stop-color="#FF6753"/>
<stop offset="1" stop-color="#FF8F50"/>
</linearGradient>
</defs>
</svg>
