<svg width="163" height="134" viewBox="0 0 163 134" fill="none" xmlns="http://www.w3.org/2000/svg">
<path d="M161.307 95.8967V23.6064C154.008 17.4943 127.851 5.17944 81.6091 5.17944C35.367 5.17944 9.2099 17.4943 1.91159 23.6064V95.8967C9.2099 102.009 35.367 114.324 81.6091 114.324C127.851 114.324 154.008 102.009 161.307 95.8967Z" fill="white" stroke="url(#paint0_linear_133_1463)" stroke-width="3" stroke-linecap="round" stroke-linejoin="round"/>
<path d="M8.31641 27.1501L37.4914 35.6548V59.7516V83.1396L8.31641 91.6444M13.2975 35.6548V59.7516V83.1396" stroke="url(#paint1_linear_133_1463)" stroke-width="3" stroke-linecap="round"/>
<path d="M155.614 27.1501L126.439 35.6548V59.7516V83.1396L155.614 91.6444M150.633 35.6548V59.7516V83.1396" stroke="url(#paint2_linear_133_1463)" stroke-width="3" stroke-linecap="round"/>
<path fill-rule="evenodd" clip-rule="evenodd" d="M110.566 38.1162C110.566 57.9914 96.9861 73.2324 81.2247 73.2324C65.4634 73.2324 51.8837 57.9914 51.8837 38.1162C51.8837 18.2411 65.4634 3.00003 81.2247 3.00003C96.9861 3.00003 110.566 18.2411 110.566 38.1162ZM95.156 72.5246C90.9371 74.9016 86.2128 76.2324 81.2247 76.2324C75.9888 76.2324 71.0435 74.766 66.6684 72.1626C66.2903 77.2361 64.4923 81.2688 61.8791 84.4513C58.9493 88.0194 55.0543 90.4486 51.1686 92.1299C47.2794 93.8127 43.3298 94.776 40.2161 95.3736C38.6685 95.6707 37.3166 95.8793 36.2841 96.0386L36.2835 96.0387L36.2613 96.0422C35.7381 96.1229 35.3124 96.1887 34.9764 96.2476C34.8095 96.2769 34.6763 96.3024 34.5726 96.325C34.5213 96.3361 34.4816 96.3456 34.4517 96.3534C34.437 96.3572 34.4259 96.3603 34.4181 96.3626L34.4091 96.3653L34.4073 96.3658C33.9516 96.5178 33.4316 96.6119 32.9445 96.6901C32.733 96.724 32.53 96.7547 32.3238 96.7858C32.003 96.8342 31.6746 96.8838 31.2949 96.9488C30.1143 97.1507 28.7414 97.4557 27.226 98.0824C24.2262 99.3229 20.4869 101.899 16.6935 107.802C12.8116 113.842 10.7513 118.508 9.65176 122.475C8.55471 126.432 8.39258 129.767 8.39258 133.214H5.39258C5.39258 129.653 5.55887 126.009 6.76079 121.673C7.96019 117.347 10.1694 112.405 14.1697 106.18C18.2585 99.818 22.456 96.8085 26.0795 95.3101C27.8757 94.5673 29.486 94.2146 30.7891 93.9917C31.1833 93.9243 31.583 93.8637 31.9324 93.8107L31.9338 93.8105C32.1318 93.7805 32.3136 93.753 32.469 93.728C32.9526 93.6504 33.2572 93.5869 33.4583 93.5199C33.7423 93.4252 34.112 93.3534 34.4584 93.2927C34.8312 93.2273 35.2911 93.1564 35.8037 93.0773L35.8149 93.0755L35.8154 93.0755C36.8496 92.9159 38.1569 92.7141 39.6506 92.4274C42.6538 91.851 46.3675 90.9384 49.9773 89.3766C53.5906 87.8132 57.0304 85.6289 59.5606 82.5475C62.0607 79.5027 63.7317 75.5128 63.7425 70.1891C54.8037 63.4073 48.8837 51.5766 48.8837 38.1162C48.8837 17.0652 63.3633 3.05176e-05 81.2247 3.05176e-05C99.0862 3.05176e-05 113.566 17.0652 113.566 38.1162C113.566 51.8998 107.358 63.9746 98.0579 70.6689C98.165 75.7535 99.8098 79.5949 102.234 82.5475C104.764 85.6289 108.204 87.8132 111.818 89.3766C115.427 90.9384 119.141 91.851 122.144 92.4274C123.638 92.7142 124.946 92.9159 125.98 93.0755L125.991 93.0773C126.504 93.1564 126.964 93.2273 127.336 93.2927C127.683 93.3534 128.053 93.4252 128.337 93.5199C128.538 93.5869 128.842 93.6504 129.326 93.728C129.481 93.753 129.663 93.7805 129.861 93.8105C130.211 93.8635 130.611 93.9242 131.006 93.9917C132.309 94.2146 133.919 94.5673 135.715 95.3101C139.339 96.8085 143.536 99.818 147.625 106.18C151.625 112.405 153.835 117.347 155.034 121.673C156.236 126.009 156.402 129.653 156.402 133.214H153.402C153.402 129.767 153.24 126.432 152.143 122.475C151.044 118.508 148.983 113.842 145.101 107.802C141.308 101.899 137.569 99.3229 134.569 98.0824C133.053 97.4557 131.681 97.1507 130.5 96.9488C130.12 96.8838 129.792 96.8342 129.471 96.7858H129.471C129.265 96.7547 129.062 96.724 128.85 96.6901C128.363 96.6119 127.843 96.5178 127.388 96.3658C127.388 96.3659 127.384 96.3647 127.377 96.3626C127.369 96.3603 127.358 96.3572 127.343 96.3534C127.335 96.3513 127.326 96.349 127.316 96.3466C127.291 96.3403 127.259 96.3331 127.222 96.325C127.119 96.3024 126.985 96.2769 126.818 96.2476C126.482 96.1887 126.057 96.1229 125.534 96.0422L125.511 96.0387C124.479 95.8794 123.127 95.6708 121.579 95.3736C118.465 94.776 114.515 93.8127 110.626 92.1299C106.74 90.4486 102.846 88.0194 99.9157 84.4513C97.365 81.3448 95.591 77.4284 95.156 72.5246Z" fill="url(#paint3_linear_133_1463)"/>
<path d="M161.307 95.8967V23.6064C154.008 17.4943 127.851 5.17944 81.6091 5.17944C35.367 5.17944 9.2099 17.4943 1.91159 23.6064V95.8967C9.2099 102.009 35.367 114.324 81.6091 114.324C127.851 114.324 154.008 102.009 161.307 95.8967Z" stroke="url(#paint4_linear_133_1463)" stroke-width="3" stroke-linecap="round" stroke-linejoin="round"/>
<path d="M73.7824 20.0627H58.7422C52.1148 20.0627 46.7422 25.4353 46.7422 32.0627V39.2468C46.7422 45.8742 52.1148 51.2468 58.7422 51.2468H64.9483C70.2026 51.2468 74.5735 47.6532 77.3036 43.1638C78.4441 41.2884 79.7024 39.9072 80.8983 39.9072C82.0941 39.9072 83.3525 41.2884 84.4929 43.1638C87.223 47.6532 91.594 51.2468 96.8483 51.2468H103.054C109.682 51.2468 115.054 45.8742 115.054 39.2468V32.0627C115.054 25.4353 109.682 20.0627 103.054 20.0627H73.7824Z" fill="white" stroke="url(#paint5_linear_133_1463)" stroke-width="3"/>
<path d="M75.22 36H78.44L81.66 26.2H79.21L76.97 33.2H76.69L74.45 26.2H72L75.22 36ZM82.646 36H84.886V32.85H85.166L87.966 36H90.766L87.756 32.71C87.756 32.71 90.486 32.57 90.486 29.56C90.486 27.53 89.156 26.2 87.266 26.2H82.646V36ZM84.886 30.82V28.3H87.126C87.756 28.3 88.246 28.79 88.246 29.56C88.246 30.33 87.756 30.82 87.126 30.82H84.886Z" fill="url(#paint6_linear_133_1463)"/>
<defs>
<linearGradient id="paint0_linear_133_1463" x1="81.9482" y1="-15.7056" x2="81.9482" y2="148.239" gradientUnits="userSpaceOnUse">
<stop stop-color="#00B9FF"/>
<stop offset="1" stop-color="#0068B5"/>
</linearGradient>
<linearGradient id="paint1_linear_133_1463" x1="22.8418" y1="14.8089" x2="22.8418" y2="111.685" gradientUnits="userSpaceOnUse">
<stop stop-color="#00B9FF"/>
<stop offset="1" stop-color="#0068B5"/>
</linearGradient>
<linearGradient id="paint2_linear_133_1463" x1="141.089" y1="14.8089" x2="141.089" y2="111.685" gradientUnits="userSpaceOnUse">
<stop stop-color="#00B9FF"/>
<stop offset="1" stop-color="#0068B5"/>
</linearGradient>
<linearGradient id="paint3_linear_133_1463" x1="5.39258" y1="75.9321" x2="156.459" y2="74.8952" gradientUnits="userSpaceOnUse">
<stop stop-color="#FF6753"/>
<stop offset="1" stop-color="#FF8F50"/>
</linearGradient>
<linearGradient id="paint4_linear_133_1463" x1="81.9482" y1="-15.7056" x2="81.9482" y2="148.239" gradientUnits="userSpaceOnUse">
<stop stop-color="#00B9FF"/>
<stop offset="1" stop-color="#0068B5"/>
</linearGradient>
<linearGradient id="paint5_linear_133_1463" x1="80.7529" y1="14.0956" x2="80.7529" y2="60.9368" gradientUnits="userSpaceOnUse">
<stop stop-color="#00B9FF"/>
<stop offset="1" stop-color="#0068B5"/>
</linearGradient>
<linearGradient id="paint6_linear_133_1463" x1="81.9575" y1="19.747" x2="81.9575" y2="45.2825" gradientUnits="userSpaceOnUse">
<stop stop-color="#00B9FF"/>
<stop offset="1" stop-color="#0068B5"/>
</linearGradient>
</defs>
</svg>
