<svg width="24" height="24" viewBox="0 0 24 24" fill="none" xmlns="http://www.w3.org/2000/svg">
<path d="M12 0.750003C5.79 0.750003 0.75 5.79 0.75 12C0.75 18.21 5.79 23.25 12 23.25C18.21 23.25 23.25 18.21 23.25 12C23.25 5.79 18.21 0.750003 12 0.750003ZM8.95125 16.8263L5.29727 13.125C5.19312 13.0208 5.1105 12.8972 5.05413 12.7611C4.99776 12.625 4.96875 12.4792 4.96875 12.3319C4.96875 12.1846 4.99776 12.0387 5.05413 11.9026C5.1105 11.7666 5.19312 11.6429 5.29727 11.5388C5.40143 11.4346 5.52508 11.352 5.66116 11.2956C5.79725 11.2392 5.9431 11.2102 6.0904 11.2102C6.23769 11.2102 6.38355 11.2392 6.51963 11.2956C6.65572 11.352 6.77937 11.4346 6.88352 11.5388L9.75 14.4413L15.9914 8.37515C16.2018 8.1648 16.4871 8.04663 16.7845 8.04663C17.082 8.04663 17.3673 8.1648 17.5777 8.37515C17.788 8.5855 17.9062 8.8708 17.9062 9.16827C17.9062 9.46575 17.788 9.75105 17.5777 9.9614L10.5375 16.8263C10.4334 16.9305 10.3098 17.0133 10.1737 17.0697C10.0376 17.1262 9.89171 17.1553 9.74437 17.1553C9.59703 17.1553 9.45114 17.1262 9.31505 17.0697C9.17895 17.0133 9.05533 16.9305 8.95125 16.8263Z" fill="#26CC80"/>
</svg>
