<svg width="621" height="101" viewBox="0 0 621 101" fill="none" xmlns="http://www.w3.org/2000/svg">
<rect x="66.5361" y="46.4364" width="8.87143" height="11.0893" fill="#BDBDBD"/>
<rect x="66.5361" y="68.615" width="8.87143" height="11.0893" fill="#BDBDBD"/>
<rect x="76.5166" y="74.1597" width="8.87143" height="11.0893" transform="rotate(90 76.5166 74.1597)" fill="#BDBDBD"/>
<rect x="156.358" y="74.1597" width="8.87143" height="11.0893" transform="rotate(90 156.358 74.1597)" fill="#BDBDBD"/>
<rect x="236.202" y="74.1597" width="8.87143" height="11.0893" transform="rotate(90 236.202 74.1597)" fill="#BDBDBD"/>
<rect x="316.045" y="74.1597" width="8.87143" height="11.0893" transform="rotate(90 316.045 74.1597)" fill="#BDBDBD"/>
<rect x="395.888" y="74.1597" width="8.87143" height="11.0893" transform="rotate(90 395.888 74.1597)" fill="#BDBDBD"/>
<rect x="475.73" y="74.1597" width="8.87143" height="11.0893" transform="rotate(90 475.73 74.1597)" fill="#BDBDBD"/>
<rect x="555.573" y="74.1597" width="8.87143" height="11.0893" transform="rotate(90 555.573 74.1597)" fill="#BDBDBD"/>
<rect x="146.379" y="68.615" width="8.87143" height="11.0893" fill="#BDBDBD"/>
<rect x="226.222" y="68.615" width="8.87143" height="11.0893" fill="#BDBDBD"/>
<rect x="306.064" y="68.615" width="8.87143" height="11.0893" fill="#BDBDBD"/>
<rect x="385.907" y="68.615" width="8.87143" height="11.0893" fill="#BDBDBD"/>
<rect x="465.75" y="68.615" width="8.87143" height="11.0893" fill="#BDBDBD"/>
<rect x="545.593" y="68.615" width="8.87143" height="11.0893" fill="#BDBDBD"/>
<rect x="68.7539" y="57.5258" width="4.43571" height="11.0893" fill="#BDBDBD"/>
<rect x="43.248" y="80.8132" width="4.43571" height="22.1786" transform="rotate(-90 43.248 80.8132)" fill="#BDBDBD"/>
<rect x="555.573" y="80.8132" width="4.43571" height="22.1786" transform="rotate(-90 555.573 80.8132)" fill="#BDBDBD"/>
<rect x="76.5166" y="80.8132" width="4.43571" height="68.7536" transform="rotate(-90 76.5166 80.8132)" fill="#BDBDBD"/>
<rect x="156.358" y="80.8132" width="4.43571" height="68.7536" transform="rotate(-90 156.358 80.8132)" fill="#BDBDBD"/>
<rect x="236.202" y="80.8132" width="4.43571" height="68.7536" transform="rotate(-90 236.202 80.8132)" fill="#BDBDBD"/>
<rect x="316.045" y="80.8132" width="4.43571" height="68.7536" transform="rotate(-90 316.045 80.8132)" fill="#BDBDBD"/>
<rect x="395.888" y="80.8132" width="4.43571" height="68.7536" transform="rotate(-90 395.888 80.8132)" fill="#BDBDBD"/>
<rect x="475.73" y="80.8132" width="4.43571" height="68.7536" transform="rotate(-90 475.73 80.8132)" fill="#BDBDBD"/>
<rect x="148.596" y="57.5258" width="4.43571" height="11.0893" fill="#BDBDBD"/>
<rect x="228.439" y="57.5258" width="4.43571" height="11.0893" fill="#BDBDBD"/>
<rect x="308.282" y="57.5258" width="4.43571" height="11.0893" fill="#BDBDBD"/>
<rect x="388.125" y="57.5258" width="4.43571" height="11.0893" fill="#BDBDBD"/>
<rect x="467.968" y="57.5258" width="4.43571" height="11.0893" fill="#BDBDBD"/>
<rect x="547.812" y="57.5258" width="4.43571" height="11.0893" fill="#BDBDBD"/>
<rect x="146.379" y="46.4364" width="8.87143" height="11.0893" fill="#BDBDBD"/>
<rect x="226.222" y="46.4364" width="8.87143" height="11.0893" fill="#BDBDBD"/>
<rect x="306.064" y="46.4364" width="8.87143" height="11.0893" fill="#BDBDBD"/>
<rect x="385.907" y="46.4364" width="8.87143" height="11.0893" fill="#BDBDBD"/>
<rect x="465.75" y="46.4364" width="8.87143" height="11.0893" fill="#BDBDBD"/>
<rect x="545.593" y="46.4364" width="8.87143" height="11.0893" fill="#BDBDBD"/>
<path d="M175.072 13.8616H126.556C124.642 13.8616 123.091 12.3101 123.091 10.3962V3.4654C123.091 1.55153 124.642 0 126.556 0H175.072C176.986 0 178.537 1.55153 178.537 3.4654V10.3962C178.537 12.3101 176.986 13.8616 175.072 13.8616ZM169.874 4.33175C168.438 4.33175 167.275 5.49537 167.275 6.9308C167.275 8.36624 168.438 9.52985 169.874 9.52985C171.309 9.52985 172.473 8.36624 172.473 6.9308C172.473 5.49537 171.309 4.33175 169.874 4.33175ZM162.943 4.33175C161.508 4.33175 160.344 5.49537 160.344 6.9308C160.344 8.36624 161.508 9.52985 162.943 9.52985C164.378 9.52985 165.542 8.36624 165.542 6.9308C165.542 5.49537 164.378 4.33175 162.943 4.33175ZM175.072 31.1886H126.556C124.642 31.1886 123.091 29.6371 123.091 27.7232V20.7924C123.091 18.8785 124.642 17.327 126.556 17.327H175.072C176.986 17.327 178.537 18.8785 178.537 20.7924V27.7232C178.537 29.6371 176.986 31.1886 175.072 31.1886ZM169.874 21.6588C168.438 21.6588 167.275 22.8224 167.275 24.2578C167.275 25.6932 168.438 26.8569 169.874 26.8569C171.309 26.8569 172.473 25.6932 172.473 24.2578C172.473 22.8224 171.309 21.6588 169.874 21.6588ZM162.943 21.6588C161.508 21.6588 160.344 22.8224 160.344 24.2578C160.344 25.6932 161.508 26.8569 162.943 26.8569C164.378 26.8569 165.542 25.6932 165.542 24.2578C165.542 22.8224 164.378 21.6588 162.943 21.6588ZM175.072 48.5156H126.556C124.642 48.5156 123.091 46.9641 123.091 45.0502V38.1194C123.091 36.2055 124.642 34.654 126.556 34.654H175.072C176.986 34.654 178.537 36.2055 178.537 38.1194V45.0502C178.537 46.9641 176.986 48.5156 175.072 48.5156ZM169.874 38.9858C168.438 38.9858 167.275 40.1494 167.275 41.5848C167.275 43.0203 168.438 44.1839 169.874 44.1839C171.309 44.1839 172.473 43.0203 172.473 41.5848C172.473 40.1494 171.309 38.9858 169.874 38.9858ZM162.943 38.9858C161.508 38.9858 160.344 40.1494 160.344 41.5848C160.344 43.0203 161.508 44.1839 162.943 44.1839C164.378 44.1839 165.542 43.0203 165.542 41.5848C165.542 40.1494 164.378 38.9858 162.943 38.9858Z" fill="url(#paint0_linear_155_215)"/>
<path d="M95.2291 13.8616H46.7134C44.7996 13.8616 43.248 12.3101 43.248 10.3962V3.4654C43.248 1.55153 44.7996 0 46.7134 0H95.2291C97.1429 0 98.6945 1.55153 98.6945 3.4654V10.3962C98.6945 12.3101 97.1429 13.8616 95.2291 13.8616ZM90.031 4.33175C88.5955 4.33175 87.4319 5.49537 87.4319 6.9308C87.4319 8.36624 88.5955 9.52985 90.031 9.52985C91.4664 9.52985 92.63 8.36624 92.63 6.9308C92.63 5.49537 91.4664 4.33175 90.031 4.33175ZM83.1002 4.33175C81.6647 4.33175 80.5011 5.49537 80.5011 6.9308C80.5011 8.36624 81.6647 9.52985 83.1002 9.52985C84.5356 9.52985 85.6992 8.36624 85.6992 6.9308C85.6992 5.49537 84.5356 4.33175 83.1002 4.33175ZM95.2291 31.1886H46.7134C44.7996 31.1886 43.248 29.6371 43.248 27.7232V20.7924C43.248 18.8785 44.7996 17.327 46.7134 17.327H95.2291C97.1429 17.327 98.6945 18.8785 98.6945 20.7924V27.7232C98.6945 29.6371 97.1429 31.1886 95.2291 31.1886ZM90.031 21.6588C88.5955 21.6588 87.4319 22.8224 87.4319 24.2578C87.4319 25.6932 88.5955 26.8569 90.031 26.8569C91.4664 26.8569 92.63 25.6932 92.63 24.2578C92.63 22.8224 91.4664 21.6588 90.031 21.6588ZM83.1002 21.6588C81.6647 21.6588 80.5011 22.8224 80.5011 24.2578C80.5011 25.6932 81.6647 26.8569 83.1002 26.8569C84.5356 26.8569 85.6992 25.6932 85.6992 24.2578C85.6992 22.8224 84.5356 21.6588 83.1002 21.6588ZM95.2291 48.5156H46.7134C44.7996 48.5156 43.248 46.9641 43.248 45.0502V38.1194C43.248 36.2055 44.7996 34.654 46.7134 34.654H95.2291C97.1429 34.654 98.6945 36.2055 98.6945 38.1194V45.0502C98.6945 46.9641 97.1429 48.5156 95.2291 48.5156ZM90.031 38.9858C88.5955 38.9858 87.4319 40.1494 87.4319 41.5848C87.4319 43.0203 88.5955 44.1839 90.031 44.1839C91.4664 44.1839 92.63 43.0203 92.63 41.5848C92.63 40.1494 91.4664 38.9858 90.031 38.9858ZM83.1002 38.9858C81.6647 38.9858 80.5011 40.1494 80.5011 41.5848C80.5011 43.0203 81.6647 44.1839 83.1002 44.1839C84.5356 44.1839 85.6992 43.0203 85.6992 41.5848C85.6992 40.1494 84.5356 38.9858 83.1002 38.9858Z" fill="url(#paint1_linear_155_215)"/>
<path d="M254.915 13.8616H206.399C204.485 13.8616 202.934 12.3101 202.934 10.3962V3.4654C202.934 1.55153 204.485 0 206.399 0H254.915C256.828 0 258.38 1.55153 258.38 3.4654V10.3962C258.38 12.3101 256.828 13.8616 254.915 13.8616ZM249.717 4.33175C248.281 4.33175 247.117 5.49537 247.117 6.9308C247.117 8.36624 248.281 9.52985 249.717 9.52985C251.152 9.52985 252.316 8.36624 252.316 6.9308C252.316 5.49537 251.152 4.33175 249.717 4.33175ZM242.786 4.33175C241.35 4.33175 240.187 5.49537 240.187 6.9308C240.187 8.36624 241.35 9.52985 242.786 9.52985C244.221 9.52985 245.385 8.36624 245.385 6.9308C245.385 5.49537 244.221 4.33175 242.786 4.33175ZM254.915 31.1886H206.399C204.485 31.1886 202.934 29.6371 202.934 27.7232V20.7924C202.934 18.8785 204.485 17.327 206.399 17.327H254.915C256.828 17.327 258.38 18.8785 258.38 20.7924V27.7232C258.38 29.6371 256.828 31.1886 254.915 31.1886ZM249.717 21.6588C248.281 21.6588 247.117 22.8224 247.117 24.2578C247.117 25.6932 248.281 26.8569 249.717 26.8569C251.152 26.8569 252.316 25.6932 252.316 24.2578C252.316 22.8224 251.152 21.6588 249.717 21.6588ZM242.786 21.6588C241.35 21.6588 240.187 22.8224 240.187 24.2578C240.187 25.6932 241.35 26.8569 242.786 26.8569C244.221 26.8569 245.385 25.6932 245.385 24.2578C245.385 22.8224 244.221 21.6588 242.786 21.6588ZM254.915 48.5156H206.399C204.485 48.5156 202.934 46.9641 202.934 45.0502V38.1194C202.934 36.2055 204.485 34.654 206.399 34.654H254.915C256.828 34.654 258.38 36.2055 258.38 38.1194V45.0502C258.38 46.9641 256.828 48.5156 254.915 48.5156ZM249.717 38.9858C248.281 38.9858 247.117 40.1494 247.117 41.5848C247.117 43.0203 248.281 44.1839 249.717 44.1839C251.152 44.1839 252.316 43.0203 252.316 41.5848C252.316 40.1494 251.152 38.9858 249.717 38.9858ZM242.786 38.9858C241.35 38.9858 240.187 40.1494 240.187 41.5848C240.187 43.0203 241.35 44.1839 242.786 44.1839C244.221 44.1839 245.385 43.0203 245.385 41.5848C245.385 40.1494 244.221 38.9858 242.786 38.9858Z" fill="url(#paint2_linear_155_215)"/>
<path d="M334.758 13.8616H286.243C284.329 13.8616 282.777 12.3101 282.777 10.3962V3.4654C282.777 1.55153 284.329 0 286.243 0H334.758C336.672 0 338.224 1.55153 338.224 3.4654V10.3962C338.224 12.3101 336.672 13.8616 334.758 13.8616ZM329.56 4.33175C328.125 4.33175 326.961 5.49537 326.961 6.9308C326.961 8.36624 328.125 9.52985 329.56 9.52985C330.996 9.52985 332.159 8.36624 332.159 6.9308C332.159 5.49537 330.996 4.33175 329.56 4.33175ZM322.629 4.33175C321.194 4.33175 320.03 5.49537 320.03 6.9308C320.03 8.36624 321.194 9.52985 322.629 9.52985C324.065 9.52985 325.229 8.36624 325.229 6.9308C325.229 5.49537 324.065 4.33175 322.629 4.33175ZM334.758 31.1886H286.243C284.329 31.1886 282.777 29.6371 282.777 27.7232V20.7924C282.777 18.8785 284.329 17.327 286.243 17.327H334.758C336.672 17.327 338.224 18.8785 338.224 20.7924V27.7232C338.224 29.6371 336.672 31.1886 334.758 31.1886ZM329.56 21.6588C328.125 21.6588 326.961 22.8224 326.961 24.2578C326.961 25.6932 328.125 26.8569 329.56 26.8569C330.996 26.8569 332.159 25.6932 332.159 24.2578C332.159 22.8224 330.996 21.6588 329.56 21.6588ZM322.629 21.6588C321.194 21.6588 320.03 22.8224 320.03 24.2578C320.03 25.6932 321.194 26.8569 322.629 26.8569C324.065 26.8569 325.229 25.6932 325.229 24.2578C325.229 22.8224 324.065 21.6588 322.629 21.6588ZM334.758 48.5156H286.243C284.329 48.5156 282.777 46.9641 282.777 45.0502V38.1194C282.777 36.2055 284.329 34.654 286.243 34.654H334.758C336.672 34.654 338.224 36.2055 338.224 38.1194V45.0502C338.224 46.9641 336.672 48.5156 334.758 48.5156ZM329.56 38.9858C328.125 38.9858 326.961 40.1494 326.961 41.5848C326.961 43.0203 328.125 44.1839 329.56 44.1839C330.996 44.1839 332.159 43.0203 332.159 41.5848C332.159 40.1494 330.996 38.9858 329.56 38.9858ZM322.629 38.9858C321.194 38.9858 320.03 40.1494 320.03 41.5848C320.03 43.0203 321.194 44.1839 322.629 44.1839C324.065 44.1839 325.229 43.0203 325.229 41.5848C325.229 40.1494 324.065 38.9858 322.629 38.9858Z" fill="url(#paint3_linear_155_215)"/>
<path d="M414.6 13.8616H366.085C364.171 13.8616 362.619 12.3101 362.619 10.3962V3.4654C362.619 1.55153 364.171 0 366.085 0H414.6C416.514 0 418.066 1.55153 418.066 3.4654V10.3962C418.066 12.3101 416.514 13.8616 414.6 13.8616ZM409.402 4.33175C407.967 4.33175 406.803 5.49537 406.803 6.9308C406.803 8.36624 407.967 9.52985 409.402 9.52985C410.837 9.52985 412.001 8.36624 412.001 6.9308C412.001 5.49537 410.837 4.33175 409.402 4.33175ZM402.471 4.33175C401.036 4.33175 399.872 5.49537 399.872 6.9308C399.872 8.36624 401.036 9.52985 402.471 9.52985C403.907 9.52985 405.07 8.36624 405.07 6.9308C405.07 5.49537 403.907 4.33175 402.471 4.33175ZM414.6 31.1886H366.085C364.171 31.1886 362.619 29.6371 362.619 27.7232V20.7924C362.619 18.8785 364.171 17.327 366.085 17.327H414.6C416.514 17.327 418.066 18.8785 418.066 20.7924V27.7232C418.066 29.6371 416.514 31.1886 414.6 31.1886ZM409.402 21.6588C407.967 21.6588 406.803 22.8224 406.803 24.2578C406.803 25.6932 407.967 26.8569 409.402 26.8569C410.837 26.8569 412.001 25.6932 412.001 24.2578C412.001 22.8224 410.837 21.6588 409.402 21.6588ZM402.471 21.6588C401.036 21.6588 399.872 22.8224 399.872 24.2578C399.872 25.6932 401.036 26.8569 402.471 26.8569C403.907 26.8569 405.07 25.6932 405.07 24.2578C405.07 22.8224 403.907 21.6588 402.471 21.6588ZM414.6 48.5156H366.085C364.171 48.5156 362.619 46.9641 362.619 45.0502V38.1194C362.619 36.2055 364.171 34.654 366.085 34.654H414.6C416.514 34.654 418.066 36.2055 418.066 38.1194V45.0502C418.066 46.9641 416.514 48.5156 414.6 48.5156ZM409.402 38.9858C407.967 38.9858 406.803 40.1494 406.803 41.5848C406.803 43.0203 407.967 44.1839 409.402 44.1839C410.837 44.1839 412.001 43.0203 412.001 41.5848C412.001 40.1494 410.837 38.9858 409.402 38.9858ZM402.471 38.9858C401.036 38.9858 399.872 40.1494 399.872 41.5848C399.872 43.0203 401.036 44.1839 402.471 44.1839C403.907 44.1839 405.07 43.0203 405.07 41.5848C405.07 40.1494 403.907 38.9858 402.471 38.9858Z" fill="url(#paint4_linear_155_215)"/>
<path d="M494.443 13.8616H445.927C444.013 13.8616 442.462 12.3101 442.462 10.3962V3.4654C442.462 1.55153 444.013 0 445.927 0H494.443C496.357 0 497.908 1.55153 497.908 3.4654V10.3962C497.908 12.3101 496.357 13.8616 494.443 13.8616ZM489.245 4.33175C487.809 4.33175 486.646 5.49537 486.646 6.9308C486.646 8.36624 487.809 9.52985 489.245 9.52985C490.68 9.52985 491.844 8.36624 491.844 6.9308C491.844 5.49537 490.68 4.33175 489.245 4.33175ZM482.314 4.33175C480.879 4.33175 479.715 5.49537 479.715 6.9308C479.715 8.36624 480.879 9.52985 482.314 9.52985C483.749 9.52985 484.913 8.36624 484.913 6.9308C484.913 5.49537 483.749 4.33175 482.314 4.33175ZM494.443 31.1886H445.927C444.013 31.1886 442.462 29.6371 442.462 27.7232V20.7924C442.462 18.8785 444.013 17.327 445.927 17.327H494.443C496.357 17.327 497.908 18.8785 497.908 20.7924V27.7232C497.908 29.6371 496.357 31.1886 494.443 31.1886ZM489.245 21.6588C487.809 21.6588 486.646 22.8224 486.646 24.2578C486.646 25.6932 487.809 26.8569 489.245 26.8569C490.68 26.8569 491.844 25.6932 491.844 24.2578C491.844 22.8224 490.68 21.6588 489.245 21.6588ZM482.314 21.6588C480.879 21.6588 479.715 22.8224 479.715 24.2578C479.715 25.6932 480.879 26.8569 482.314 26.8569C483.749 26.8569 484.913 25.6932 484.913 24.2578C484.913 22.8224 483.749 21.6588 482.314 21.6588ZM494.443 48.5156H445.927C444.013 48.5156 442.462 46.9641 442.462 45.0502V38.1194C442.462 36.2055 444.013 34.654 445.927 34.654H494.443C496.357 34.654 497.908 36.2055 497.908 38.1194V45.0502C497.908 46.9641 496.357 48.5156 494.443 48.5156ZM489.245 38.9858C487.809 38.9858 486.646 40.1494 486.646 41.5848C486.646 43.0203 487.809 44.1839 489.245 44.1839C490.68 44.1839 491.844 43.0203 491.844 41.5848C491.844 40.1494 490.68 38.9858 489.245 38.9858ZM482.314 38.9858C480.879 38.9858 479.715 40.1494 479.715 41.5848C479.715 43.0203 480.879 44.1839 482.314 44.1839C483.749 44.1839 484.913 43.0203 484.913 41.5848C484.913 40.1494 483.749 38.9858 482.314 38.9858Z" fill="url(#paint5_linear_155_215)"/>
<path d="M574.287 13.8616H525.771C523.857 13.8616 522.306 12.3101 522.306 10.3962V3.4654C522.306 1.55153 523.857 0 525.771 0H574.287C576.201 0 577.752 1.55153 577.752 3.4654V10.3962C577.752 12.3101 576.201 13.8616 574.287 13.8616ZM569.089 4.33175C567.653 4.33175 566.49 5.49537 566.49 6.9308C566.49 8.36624 567.653 9.52985 569.089 9.52985C570.524 9.52985 571.688 8.36624 571.688 6.9308C571.688 5.49537 570.524 4.33175 569.089 4.33175ZM562.158 4.33175C560.722 4.33175 559.559 5.49537 559.559 6.9308C559.559 8.36624 560.722 9.52985 562.158 9.52985C563.593 9.52985 564.757 8.36624 564.757 6.9308C564.757 5.49537 563.593 4.33175 562.158 4.33175ZM574.287 31.1886H525.771C523.857 31.1886 522.306 29.6371 522.306 27.7232V20.7924C522.306 18.8785 523.857 17.327 525.771 17.327H574.287C576.201 17.327 577.752 18.8785 577.752 20.7924V27.7232C577.752 29.6371 576.201 31.1886 574.287 31.1886ZM569.089 21.6588C567.653 21.6588 566.49 22.8224 566.49 24.2578C566.49 25.6932 567.653 26.8569 569.089 26.8569C570.524 26.8569 571.688 25.6932 571.688 24.2578C571.688 22.8224 570.524 21.6588 569.089 21.6588ZM562.158 21.6588C560.722 21.6588 559.559 22.8224 559.559 24.2578C559.559 25.6932 560.722 26.8569 562.158 26.8569C563.593 26.8569 564.757 25.6932 564.757 24.2578C564.757 22.8224 563.593 21.6588 562.158 21.6588ZM574.287 48.5156H525.771C523.857 48.5156 522.306 46.9641 522.306 45.0502V38.1194C522.306 36.2055 523.857 34.654 525.771 34.654H574.287C576.201 34.654 577.752 36.2055 577.752 38.1194V45.0502C577.752 46.9641 576.201 48.5156 574.287 48.5156ZM569.089 38.9858C567.653 38.9858 566.49 40.1494 566.49 41.5848C566.49 43.0203 567.653 44.1839 569.089 44.1839C570.524 44.1839 571.688 43.0203 571.688 41.5848C571.688 40.1494 570.524 38.9858 569.089 38.9858ZM562.158 38.9858C560.722 38.9858 559.559 40.1494 559.559 41.5848C559.559 43.0203 560.722 44.1839 562.158 44.1839C563.593 44.1839 564.757 43.0203 564.757 41.5848C564.757 40.1494 563.593 38.9858 562.158 38.9858Z" fill="url(#paint6_linear_155_215)"/>
<circle cx="22.1786" cy="78.5953" r="20.1786" fill="white" stroke="url(#paint7_linear_155_215)" stroke-width="4"/>
<circle cx="598.821" cy="78.5953" r="20.1786" fill="white" stroke="url(#paint8_linear_155_215)" stroke-width="4"/>
<circle cx="594.387" cy="78.5954" r="4.43571" stroke="url(#paint9_linear_155_215)" stroke-width="3"/>
<circle cx="603.258" cy="78.5954" r="4.43571" stroke="url(#paint10_linear_155_215)" stroke-width="3"/>
<circle cx="17.7424" cy="78.5954" r="4.43571" stroke="url(#paint11_linear_155_215)" stroke-width="3"/>
<circle cx="26.6144" cy="78.5954" r="4.43571" stroke="url(#paint12_linear_155_215)" stroke-width="3"/>
<defs>
<linearGradient id="paint0_linear_155_215" x1="150.696" y1="-9.28361" x2="150.696" y2="63.5912" gradientUnits="userSpaceOnUse">
<stop stop-color="#00B9FF"/>
<stop offset="1" stop-color="#0068B5"/>
</linearGradient>
<linearGradient id="paint1_linear_155_215" x1="70.8533" y1="-9.28361" x2="70.8533" y2="63.5912" gradientUnits="userSpaceOnUse">
<stop stop-color="#00B9FF"/>
<stop offset="1" stop-color="#0068B5"/>
</linearGradient>
<linearGradient id="paint2_linear_155_215" x1="230.539" y1="-9.28361" x2="230.539" y2="63.5912" gradientUnits="userSpaceOnUse">
<stop stop-color="#00B9FF"/>
<stop offset="1" stop-color="#0068B5"/>
</linearGradient>
<linearGradient id="paint3_linear_155_215" x1="310.383" y1="-9.28361" x2="310.383" y2="63.5912" gradientUnits="userSpaceOnUse">
<stop stop-color="#00B9FF"/>
<stop offset="1" stop-color="#0068B5"/>
</linearGradient>
<linearGradient id="paint4_linear_155_215" x1="390.224" y1="-9.28361" x2="390.224" y2="63.5912" gradientUnits="userSpaceOnUse">
<stop stop-color="#00B9FF"/>
<stop offset="1" stop-color="#0068B5"/>
</linearGradient>
<linearGradient id="paint5_linear_155_215" x1="470.067" y1="-9.28361" x2="470.067" y2="63.5912" gradientUnits="userSpaceOnUse">
<stop stop-color="#00B9FF"/>
<stop offset="1" stop-color="#0068B5"/>
</linearGradient>
<linearGradient id="paint6_linear_155_215" x1="549.911" y1="-9.28361" x2="549.911" y2="63.5912" gradientUnits="userSpaceOnUse">
<stop stop-color="#00B9FF"/>
<stop offset="1" stop-color="#0068B5"/>
</linearGradient>
<linearGradient id="paint7_linear_155_215" x1="22.0842" y1="47.9289" x2="22.0842" y2="114.557" gradientUnits="userSpaceOnUse">
<stop stop-color="#00B9FF"/>
<stop offset="1" stop-color="#0068B5"/>
</linearGradient>
<linearGradient id="paint8_linear_155_215" x1="598.727" y1="47.9289" x2="598.727" y2="114.557" gradientUnits="userSpaceOnUse">
<stop stop-color="#00B9FF"/>
<stop offset="1" stop-color="#0068B5"/>
</linearGradient>
<linearGradient id="paint9_linear_155_215" x1="589.951" y1="79.2164" x2="598.826" y2="79.1626" gradientUnits="userSpaceOnUse">
<stop stop-color="#FF6753"/>
<stop offset="1" stop-color="#FF8F50"/>
</linearGradient>
<linearGradient id="paint10_linear_155_215" x1="598.822" y1="79.2164" x2="607.697" y2="79.1626" gradientUnits="userSpaceOnUse">
<stop stop-color="#FF6753"/>
<stop offset="1" stop-color="#FF8F50"/>
</linearGradient>
<linearGradient id="paint11_linear_155_215" x1="13.3066" y1="79.2164" x2="22.1815" y2="79.1626" gradientUnits="userSpaceOnUse">
<stop stop-color="#FF6753"/>
<stop offset="1" stop-color="#FF8F50"/>
</linearGradient>
<linearGradient id="paint12_linear_155_215" x1="22.1787" y1="79.2164" x2="31.0536" y2="79.1626" gradientUnits="userSpaceOnUse">
<stop stop-color="#FF6753"/>
<stop offset="1" stop-color="#FF8F50"/>
</linearGradient>
</defs>
</svg>
