<svg width="23" height="23" viewBox="0 0 23 23" fill="none" xmlns="http://www.w3.org/2000/svg">
<path d="M17.4593 6.89794L6.17138 1.92902C5.94552 1.83 5.6896 1.82468 5.45982 1.91423C5.34627 1.95921 5.24273 2.02622 5.15519 2.11139C5.06764 2.19656 4.99781 2.2982 4.94971 2.41048L2.17739 8.87922C2.08085 9.10446 2.07773 9.35882 2.16871 9.58637C2.25969 9.81391 2.43733 9.99599 2.66255 10.0926L9.09156 12.8473L7.94567 15.7121H3.95075V12.9397H2.10254V20.3326H3.95075V17.5603H7.94567C8.70621 17.5603 9.37988 17.1038 9.66081 16.3978L10.7901 13.5755L13.9496 14.9294C14.1738 15.0257 14.4271 15.0295 14.654 14.9398C14.881 14.8501 15.0633 14.6743 15.1611 14.4507L17.9334 8.11406C18.0315 7.88989 18.0367 7.63597 17.9478 7.40799C17.8589 7.18001 17.6833 6.99658 17.4593 6.89794V6.89794Z" fill="#4F4F4F"/>
<path d="M18.6711 15.1318L16.9541 14.4461L18.8005 9.82556L20.5175 10.5103L18.6711 15.1318Z" fill="#4F4F4F"/>
</svg>
