<svg width="23" height="18" viewBox="0 0 23 18" fill="none" xmlns="http://www.w3.org/2000/svg">
<path fill-rule="evenodd" clip-rule="evenodd" d="M3.18345 3.54698C2.44819 3.54698 1.74304 3.83906 1.22313 4.35897C0.703216 4.87889 0.411133 5.58404 0.411133 6.3193L0.411133 14.6363C0.411133 15.3715 0.703216 16.0767 1.22313 16.5966C1.74304 17.1165 2.44819 17.4086 3.18345 17.4086H19.8174C20.5526 17.4086 21.2578 17.1165 21.7777 16.5966C22.2976 16.0767 22.5897 15.3715 22.5897 14.6363V6.3193C22.5897 5.58404 22.2976 4.87889 21.7777 4.35897C21.2578 3.83906 20.5526 3.54698 19.8174 3.54698H18.1928C17.4576 3.54682 16.7526 3.25464 16.2328 2.73469L15.085 1.58695C14.5652 1.067 13.8602 0.774815 13.125 0.774658H9.87584C9.14063 0.774815 8.4356 1.067 7.91581 1.58695L6.76807 2.73469C6.24828 3.25464 5.54324 3.54682 4.80803 3.54698H3.18345ZM3.87653 6.3193C4.06035 6.3193 4.23664 6.24628 4.36662 6.1163C4.49659 5.98633 4.56961 5.81004 4.56961 5.62622C4.56961 5.4424 4.49659 5.26612 4.36662 5.13614C4.23664 5.00616 4.06035 4.93314 3.87653 4.93314C3.69272 4.93314 3.51643 5.00616 3.38645 5.13614C3.25647 5.26612 3.18345 5.4424 3.18345 5.62622C3.18345 5.81004 3.25647 5.98633 3.38645 6.1163C3.51643 6.24628 3.69272 6.3193 3.87653 6.3193ZM16.352 9.7847C16.352 11.0714 15.8408 12.3054 14.931 13.2153C14.0211 14.1251 12.7871 14.6363 11.5004 14.6363C10.2137 14.6363 8.97969 14.1251 8.06985 13.2153C7.16 12.3054 6.64886 11.0714 6.64886 9.7847C6.64886 8.49799 7.16 7.26398 8.06985 6.35413C8.97969 5.44429 10.2137 4.93314 11.5004 4.93314C12.7871 4.93314 14.0211 5.44429 14.931 6.35413C15.8408 7.26398 16.352 8.49799 16.352 9.7847Z" fill="#4F4F4F"/>
</svg>
