<svg width="24" height="18" viewBox="0 0 24 18" fill="none" xmlns="http://www.w3.org/2000/svg">
<path d="M22.54 5.62622H19.9466L19.2258 3.82421C18.4851 1.97152 16.7173 0.774658 14.7216 0.774658H9.2203C7.22509 0.774658 5.45687 1.97152 4.71571 3.82421L3.99491 5.62622H1.40192C1.06361 5.62622 0.815403 5.94417 0.897706 6.27209L1.15761 7.31171C1.21522 7.54302 1.42315 7.70546 1.66183 7.70546H2.53121C1.94946 8.21358 1.57476 8.95214 1.57476 9.7847V11.8639C1.57476 12.5622 1.84159 13.1925 2.26784 13.6802V16.0224C2.26784 16.7878 2.88858 17.4086 3.654 17.4086H5.04016C5.80558 17.4086 6.42632 16.7878 6.42632 16.0224V14.6363H17.5156V16.0224C17.5156 16.7878 18.1363 17.4086 18.9018 17.4086H20.2879C21.0533 17.4086 21.6741 16.7878 21.6741 16.0224V13.6802C22.1003 13.1929 22.3672 12.5627 22.3672 11.8639V9.7847C22.3672 8.95214 21.9925 8.21358 21.4111 7.70546H22.2805C22.5192 7.70546 22.7271 7.54302 22.7847 7.31171L23.0447 6.27209C23.1265 5.94417 22.8783 5.62622 22.54 5.62622ZM7.28964 4.85387C7.60542 4.06462 8.36998 3.54698 9.2203 3.54698H14.7216C15.5719 3.54698 16.3365 4.06462 16.6523 4.85387L17.5156 7.01238H6.42632L7.28964 4.85387ZM5.04016 11.8553C4.20846 11.8553 3.654 11.3025 3.654 10.4735C3.654 9.64435 4.20846 9.09162 5.04016 9.09162C5.87186 9.09162 7.1194 10.3353 7.1194 11.1644C7.1194 11.9935 5.87186 11.8553 5.04016 11.8553ZM18.9018 11.8553C18.0701 11.8553 16.8225 11.9935 16.8225 11.1644C16.8225 10.3353 18.0701 9.09162 18.9018 9.09162C19.7335 9.09162 20.2879 9.64435 20.2879 10.4735C20.2879 11.3025 19.7335 11.8553 18.9018 11.8553Z" fill="#4F4F4F"/>
</svg>
