<svg width="23" height="24" viewBox="0 0 23 24" fill="none" xmlns="http://www.w3.org/2000/svg">
<path d="M11.2648 13.3207C5.64899 13.3207 1.09961 13.9412 1.09961 14.7096C1.09961 15.4734 5.64853 16.093 11.2648 16.093C16.8815 16.093 21.43 15.4734 21.43 14.7096C21.43 13.9412 16.8815 13.3207 11.2648 13.3207ZM11.2648 15.156C9.94193 15.156 8.86627 14.9277 8.86627 14.6458C8.86627 14.3645 9.94239 14.1357 11.2648 14.1357C12.5872 14.1357 13.6642 14.3645 13.6642 14.6458C13.6642 14.9277 12.5872 15.156 11.2648 15.156Z" fill="#4F4F4F"/>
<path d="M10.0117 7.776L11.1072 10.747L13.6896 7.776H18.0727C20.2198 7.776 21.7257 8.76849 21.3801 10.0419C21.0358 11.3153 18.9876 12.3078 16.8506 12.3078H13.9419C13.9419 12.3078 14.0071 12.288 14.0214 12.2496C14.1351 11.8134 14.8101 9.3553 14.8184 9.31695C14.8277 9.26982 14.7699 9.2555 14.7699 9.2555H16.8824C16.8824 9.2555 16.8418 9.25272 16.8247 9.31695C16.6465 9.95962 16.4701 10.6028 16.2956 11.2465C16.285 11.2899 16.2208 11.3107 16.2208 11.3107H16.7263C17.9248 11.3107 19.0582 10.9281 19.2967 10.041C19.5152 9.23147 18.7219 8.77219 17.4304 8.77219H16.9619L14.9404 8.77404L10.3 13.3632L8.52342 8.85628C8.52342 8.85628 8.50679 8.82579 8.49339 8.78836C8.48692 8.77635 8.44349 8.73938 8.39821 8.75925C8.36817 8.77589 8.36402 8.81331 8.36771 8.82671C8.38435 8.85721 8.38712 8.86368 8.38989 8.878C8.6528 9.30771 8.60567 9.80627 8.54237 10.0424C8.18474 11.313 6.14616 12.3083 4.0087 12.3083H1.09961C1.09961 12.3083 1.16846 12.2884 1.17908 12.2501C1.29644 11.813 1.97243 9.3419 1.97659 9.31741C1.9849 9.27583 1.93084 9.25596 1.93084 9.25596H4.05814C4.05814 9.25596 3.99715 9.27305 3.98513 9.31649C3.97404 9.35253 3.54433 10.9023 3.45331 11.2469C3.44268 11.2904 3.37106 11.3112 3.37106 11.3112H3.88764C5.08759 11.3112 6.21269 10.9286 6.45065 10.0415C6.66874 9.23193 5.88233 8.77265 4.59273 8.77265H2.06392C2.06392 8.77265 2.12167 8.74539 2.13184 8.70843C2.18867 8.50374 2.36148 7.86102 2.36979 7.83099C2.37904 7.79772 2.32128 7.776 2.32128 7.776H10.0117Z" fill="#4F4F4F"/>
</svg>
