<svg width="21" height="20" viewBox="0 0 21 20" fill="none" xmlns="http://www.w3.org/2000/svg">
<path d="M19.9894 9.78294L11.0681 0.868194C11.0039 0.803833 10.9276 0.752772 10.8436 0.717933C10.7596 0.683094 10.6696 0.665161 10.5787 0.665161C10.4877 0.665161 10.3977 0.683094 10.3137 0.717933C10.2297 0.752772 10.1534 0.803833 10.0892 0.868194L1.16793 9.78294C0.908022 10.0428 0.760742 10.3959 0.760742 10.7641C0.760742 11.5286 1.38235 12.1502 2.1469 12.1502H3.08689V18.5114C3.08689 18.8948 3.39661 19.2045 3.77997 19.2045H9.1925V14.3529H11.6183V19.2045H17.3773C17.7607 19.2045 18.0704 18.8948 18.0704 18.5114V12.1502H19.0104C19.3786 12.1502 19.7316 12.0051 19.9916 11.7431C20.5309 11.2016 20.5309 10.3244 19.9894 9.78294Z" fill="#4F4F4F"/>
</svg>
