<svg width="23" height="24" viewBox="0 0 23 24" fill="none" xmlns="http://www.w3.org/2000/svg">
<path d="M21.5031 11.9345H18.0377V17.4791H19.4238C19.7992 17.4791 20.1241 17.6163 20.3985 17.8907C20.6728 18.165 20.81 18.4899 20.81 18.8653V21.6376C20.81 22.0275 20.6728 22.356 20.3985 22.6231C20.1241 22.8902 19.7992 23.0238 19.4238 23.0238H15.2653C14.8755 23.0238 14.547 22.8902 14.2799 22.6231C14.0127 22.356 13.8792 22.0275 13.8792 21.6376V18.8653C13.8792 18.4899 14.0127 18.165 14.2799 17.8907C14.547 17.6163 14.8755 17.4791 15.2653 17.4791H16.6515V11.9345H6.94838V17.4791H8.33454C8.70996 17.4791 9.03484 17.6163 9.30919 17.8907C9.58353 18.165 9.7207 18.4899 9.7207 18.8653V21.6376C9.7207 22.0275 9.58353 22.356 9.30919 22.6231C9.03484 22.8902 8.70996 23.0238 8.33454 23.0238H4.17606C3.7862 23.0238 3.45771 22.8902 3.19059 22.6231C2.92346 22.356 2.7899 22.0275 2.7899 21.6376V18.8653C2.7899 18.4899 2.92346 18.165 3.19059 17.8907C3.45771 17.6163 3.7862 17.4791 4.17606 17.4791H5.56222V11.9345H0.710658C0.522949 11.9345 0.360509 11.8659 0.223336 11.7287C0.0861642 11.5916 0.0175781 11.4291 0.0175781 11.2414C0.0175781 11.0537 0.0861642 10.8913 0.223336 10.7541C0.360509 10.6169 0.522949 10.5483 0.710658 10.5483H11.1069V6.38986H9.7207C9.33084 6.38986 9.00235 6.25629 8.73523 5.98917C8.4681 5.72205 8.33454 5.39355 8.33454 5.0037V2.23138C8.33454 1.85596 8.4681 1.53108 8.73523 1.25673C9.00235 0.982387 9.33084 0.845215 9.7207 0.845215H13.8792C14.2546 0.845215 14.5795 0.982387 14.8538 1.25673C15.1282 1.53108 15.2653 1.85596 15.2653 2.23138V5.0037C15.2653 5.39355 15.1282 5.72205 14.8538 5.98917C14.5795 6.25629 14.2546 6.38986 13.8792 6.38986H12.493V10.5483H21.5031C21.6908 10.5483 21.8532 10.6169 21.9904 10.7541C22.1276 10.8913 22.1961 11.0537 22.1961 11.2414C22.1961 11.4291 22.1276 11.5916 21.9904 11.7287C21.8532 11.8659 21.6908 11.9345 21.5031 11.9345Z" fill="#4F4F4F"/>
</svg>
