<svg width="17" height="18" viewBox="0 0 17 18" fill="none" xmlns="http://www.w3.org/2000/svg">
<path fill-rule="evenodd" clip-rule="evenodd" d="M1.76811 2.28097C1.76811 1.69275 2.00177 1.12863 2.4177 0.712705C2.83363 0.296777 3.39775 0.0631104 3.98597 0.0631104H12.8574C13.4456 0.0631104 14.0097 0.296777 14.4257 0.712705C14.8416 1.12863 15.0753 1.69275 15.0753 2.28097V15.5881C15.3694 15.5881 15.6514 15.7049 15.8594 15.9129C16.0673 16.1209 16.1842 16.4029 16.1842 16.697C16.1842 16.9911 16.0673 17.2732 15.8594 17.4812C15.6514 17.6891 15.3694 17.806 15.0753 17.806H11.7485C11.4544 17.806 11.1723 17.6891 10.9643 17.4812C10.7564 17.2732 10.6395 16.9911 10.6395 16.697V14.4792C10.6395 14.1851 10.5227 13.903 10.3147 13.695C10.1068 13.4871 9.82472 13.3703 9.53061 13.3703H7.31275C7.01865 13.3703 6.73659 13.4871 6.52862 13.695C6.32066 13.903 6.20382 14.1851 6.20382 14.4792V16.697C6.20382 16.9911 6.08699 17.2732 5.87902 17.4812C5.67106 17.6891 5.389 17.806 5.09489 17.806H1.76811C1.474 17.806 1.19194 17.6891 0.983977 17.4812C0.776013 17.2732 0.65918 16.9911 0.65918 16.697C0.65918 16.4029 0.776013 16.1209 0.983977 15.9129C1.19194 15.7049 1.474 15.5881 1.76811 15.5881V2.28097ZM5.09489 3.3899H7.31275V5.60775H5.09489V3.3899ZM7.31275 7.82561H5.09489V10.0435H7.31275V7.82561ZM9.53061 3.3899H11.7485V5.60775H9.53061V3.3899ZM11.7485 7.82561H9.53061V10.0435H11.7485V7.82561Z" fill="#4F4F4F"/>
</svg>
