<svg width="14" height="22" viewBox="0 0 14 22" fill="none" xmlns="http://www.w3.org/2000/svg">
<path d="M10.8622 0.232422C11.6631 0.232422 12.3561 0.525056 12.9414 1.11032C13.5267 1.69559 13.8193 2.38867 13.8193 3.18956V18.9918C13.8193 19.7927 13.5267 20.4858 12.9414 21.071C12.3561 21.6563 11.6631 21.9489 10.8622 21.9489H2.96105C2.12935 21.9489 1.42857 21.6563 0.858705 21.071C0.288839 20.4858 0.00390625 19.7927 0.00390625 18.9918V3.18956C0.00390625 2.38867 0.288839 1.69559 0.858705 1.11032C1.42857 0.525056 2.12935 0.232422 2.96105 0.232422H10.8622ZM8.87534 19.9621V18.9918H4.94788V19.9621H8.87534ZM12.0635 17.005V3.18956H1.7135V17.005H12.0635Z" fill="#4F4F4F"/>
</svg>
