<svg width="19" height="24" viewBox="0 0 19 24" fill="none" xmlns="http://www.w3.org/2000/svg">
<path d="M16.3622 18.4032H2.50056V3.61754H16.3622V18.4032ZM9.43136 22.0997C9.06373 22.0997 8.71115 21.9536 8.4512 21.6937C8.19124 21.4337 8.0452 21.0812 8.0452 20.7135C8.0452 20.3459 8.19124 19.9933 8.4512 19.7334C8.71115 19.4734 9.06373 19.3274 9.43136 19.3274C9.79899 19.3274 10.1516 19.4734 10.4115 19.7334C10.6715 19.9933 10.8175 20.3459 10.8175 20.7135C10.8175 21.0812 10.6715 21.4337 10.4115 21.6937C10.1516 21.9536 9.79899 22.0997 9.43136 22.0997ZM15.9001 0.845215H2.96261C2.34989 0.845215 1.76226 1.08862 1.32901 1.52188C0.895746 1.95514 0.652344 2.54276 0.652344 3.15548V20.7135C0.652344 21.0169 0.712101 21.3173 0.828202 21.5976C0.944304 21.8779 1.11448 22.1326 1.32901 22.3471C1.54353 22.5617 1.79822 22.7318 2.07851 22.8479C2.3588 22.964 2.65922 23.0238 2.96261 23.0238H15.9001C16.2035 23.0238 16.5039 22.964 16.7842 22.8479C17.0645 22.7318 17.3192 22.5617 17.5337 22.3471C17.7482 22.1326 17.9184 21.8779 18.0345 21.5976C18.1506 21.3173 18.2104 21.0169 18.2104 20.7135V3.15548C18.2104 2.54276 17.967 1.95514 17.5337 1.52188C17.1005 1.08862 16.5128 0.845215 15.9001 0.845215V0.845215Z" fill="#4F4F4F"/>
</svg>
