<svg width="14" height="20" viewBox="0 0 14 20" fill="none" xmlns="http://www.w3.org/2000/svg">
<path d="M2.11482 0.693481C1.62464 0.693481 1.15454 0.888203 0.807931 1.23481C0.461324 1.58142 0.266602 2.05152 0.266602 2.5417V17.3274C0.266602 17.8176 0.461324 18.2877 0.807931 18.6343C1.15454 18.9809 1.62464 19.1756 2.11482 19.1756H11.3559C11.8461 19.1756 12.3162 18.9809 12.6628 18.6343C13.0094 18.2877 13.2041 17.8176 13.2041 17.3274V2.5417C13.2041 2.05152 13.0094 1.58142 12.6628 1.23481C12.3162 0.888203 11.8461 0.693481 11.3559 0.693481H2.11482ZM2.11482 2.5417H11.3559V8.08634H2.11482V2.5417ZM6.73535 9.93455C7.71571 9.93455 8.65591 10.324 9.34912 11.0172C10.0423 11.7104 10.4318 12.6506 10.4318 13.631C10.4318 14.6113 10.0423 15.5515 9.34912 16.2447C8.65591 16.938 7.71571 17.3274 6.73535 17.3274C5.755 17.3274 4.8148 16.938 4.12158 16.2447C3.42837 15.5515 3.03892 14.6113 3.03892 13.631C3.03892 12.6506 3.42837 11.7104 4.12158 11.0172C4.8148 10.324 5.755 9.93455 6.73535 9.93455ZM6.73535 11.7828C6.24517 11.7828 5.77507 11.9775 5.42847 12.3241C5.08186 12.6707 4.88714 13.1408 4.88714 13.631C4.88714 14.1212 5.08186 14.5913 5.42847 14.9379C5.77507 15.2845 6.24517 15.4792 6.73535 15.4792C7.22553 15.4792 7.69563 15.2845 8.04224 14.9379C8.38884 14.5913 8.58357 14.1212 8.58357 13.631C8.58357 13.1408 8.38884 12.6707 8.04224 12.3241C7.69563 11.9775 7.22553 11.7828 6.73535 11.7828Z" fill="#4F4F4F"/>
</svg>
