<svg width="19" height="23" viewBox="0 0 19 23" fill="none" xmlns="http://www.w3.org/2000/svg">
<path d="M17.1309 6.93311H17.8239C18.0078 6.93311 18.184 7.00613 18.314 7.1361C18.444 7.26608 18.517 7.44237 18.517 7.62619V10.3985C18.517 10.5823 18.444 10.7586 18.314 10.8886C18.184 11.0186 18.0078 11.0916 17.8239 11.0916H17.1309V6.93311Z" fill="#4F4F4F"/>
<path fill-rule="evenodd" clip-rule="evenodd" d="M9.50711 6.23999C9.69093 6.23999 9.86722 6.31301 9.9972 6.44299C10.1272 6.57297 10.2002 6.74925 10.2002 6.93307V11.7846C10.2002 11.9684 10.1272 12.1447 9.9972 12.2747C9.86722 12.4047 9.69093 12.4777 9.50711 12.4777H6.04171C5.8579 12.4777 5.68161 12.4047 5.55163 12.2747C5.42165 12.1447 5.34863 11.9684 5.34863 11.7846C5.34863 11.6008 5.42165 11.4245 5.55163 11.2946C5.68161 11.1646 5.8579 11.0916 6.04171 11.0916H8.81403V6.93307C8.81403 6.74925 8.88705 6.57297 9.01703 6.44299C9.14701 6.31301 9.3233 6.23999 9.50711 6.23999Z" fill="#4F4F4F"/>
<path fill-rule="evenodd" clip-rule="evenodd" d="M3.96247 2.77466H13.6656C14.5847 2.77466 15.4661 3.13976 16.116 3.78965C16.7659 4.43954 17.131 5.32098 17.131 6.24006V15.9432C17.131 16.8623 16.7659 17.7437 16.116 18.3936C15.4661 19.0435 14.5847 19.4086 13.6656 19.4086H3.96247C3.04339 19.4086 2.16195 19.0435 1.51206 18.3936C0.862174 17.7437 0.49707 16.8623 0.49707 15.9432V6.24006C0.49707 5.32098 0.862174 4.43954 1.51206 3.78965C2.16195 3.13976 3.04339 2.77466 3.96247 2.77466ZM3.96247 4.16082C3.41102 4.16082 2.88216 4.37988 2.49223 4.76981C2.10229 5.15975 1.88323 5.68861 1.88323 6.24006V15.9432C1.88323 16.4946 2.10229 17.0235 2.49223 17.4134C2.88216 17.8034 3.41102 18.0224 3.96247 18.0224H13.6656C14.217 18.0224 14.7459 17.8034 15.1358 17.4134C15.5258 17.0235 15.7448 16.4946 15.7448 15.9432V6.24006C15.7448 5.68861 15.5258 5.15975 15.1358 4.76981C14.7459 4.37988 14.217 4.16082 13.6656 4.16082H3.96247Z" fill="#4F4F4F"/>
<path d="M3.26953 2.84395V2.31305C3.26953 1.03778 4.30361 0.00231934 5.58026 0.00231934H12.0481C13.3234 0.00231934 14.3588 1.0364 14.3588 2.31305V2.84395C14.1307 2.79774 13.8985 2.77452 13.6657 2.77464H3.96261C3.72558 2.77464 3.49409 2.79821 3.26953 2.84395ZM3.26953 19.3393C3.49409 19.385 3.72558 19.4086 3.96261 19.4086H13.6657C13.9028 19.4086 14.1343 19.385 14.3588 19.3393V19.8702C14.3588 21.1454 13.3247 22.1809 12.0481 22.1809H5.58026C4.30499 22.1809 3.26953 21.1468 3.26953 19.8702V19.3393Z" fill="#4F4F4F"/>
</svg>
