<svg width="21" height="16" viewBox="0 0 21 16" fill="none" xmlns="http://www.w3.org/2000/svg">
<path d="M1.40667 0.160767H18.9647C19.741 0.160767 20.3509 0.761436 20.3509 1.54693V12.1742C20.3509 12.9597 19.741 13.5603 18.9647 13.5603H1.40667C0.621177 13.5603 0.0205078 12.9597 0.0205078 12.1742V1.54693C0.0205078 0.761436 0.621177 0.160767 1.40667 0.160767ZM8.06948 3.85719V9.86389L13.3461 6.81434L8.06948 3.85719ZM15.0372 15.4085H5.24171C4.96448 15.4085 4.77966 15.2237 4.77966 14.9465C4.77966 14.6692 4.96448 14.4844 5.24171 14.4844H15.1297C15.4069 14.4844 15.5917 14.6692 15.5917 14.9465C15.5917 15.2237 15.3145 15.4085 15.0372 15.4085Z" fill="#4F4F4F"/>
</svg>
