<svg width="207" height="27" viewBox="0 0 207 27" fill="none" xmlns="http://www.w3.org/2000/svg">
<g clip-path="url(#clip0_171_0)">
<path d="M77.0237 19.625L73.691 19.6085L71.1861 16.457H64.1286L65.6969 14.51H69.6395L67.0474 11.2595L60.3385 19.6085H57.0059L65.087 9.42801C65.2904 9.16401 65.5735 8.92201 65.9366 8.70201C66.3722 8.44901 66.7643 8.32251 67.1128 8.32251C67.4904 8.32251 67.8824 8.44351 68.289 8.68551C68.6375 8.89451 68.9207 9.14201 69.1385 9.42801L77.0237 19.625ZM100.192 8.35551L91.6965 18.701C91.1012 19.438 90.5639 19.8065 90.0847 19.8065C89.62 19.8065 89.0899 19.438 88.4946 18.701L80.1738 8.35551H83.5065L90.15 16.721L96.8589 8.35551H100.192ZM122.233 14.8895H113.738V12.926H122.233V14.8895ZM122.908 19.625H110.056V8.35551H122.908V10.319H112.648V17.6615H122.908V19.625ZM150.303 16.1435C150.303 17.2105 149.802 18.0685 148.8 18.7175C147.841 19.3225 146.643 19.625 145.206 19.625H133.857V17.6615H145.206C145.917 17.6615 146.535 17.5405 147.057 17.2985C147.652 17.0015 147.95 16.6 147.95 16.094C147.95 15.588 147.645 15.1975 147.036 14.9225C146.527 14.6915 145.917 14.576 145.206 14.576H138.192C136.899 14.576 135.818 14.3065 134.946 13.7675C134.017 13.1845 133.552 12.4145 133.552 11.4575C133.552 10.5115 134.017 9.74701 134.946 9.16401C135.818 8.62501 136.899 8.35551 138.192 8.35551H149.41V10.319H138.192C137.698 10.319 137.277 10.4235 136.929 10.6325C136.58 10.8415 136.406 11.122 136.406 11.474C136.406 11.837 136.58 12.1175 136.929 12.3155C137.277 12.5135 137.698 12.6125 138.192 12.6125H145.206C146.643 12.6125 147.841 12.926 148.8 13.553C149.802 14.213 150.303 15.0765 150.303 16.1435ZM176.31 19.625H173.718V14.939H164.984V12.9755H173.718V8.35551H176.31V19.625ZM163.807 19.625H161.215V8.35551H163.807V19.625ZM206.64 19.625L203.308 19.6085L200.803 16.457H193.745L195.314 14.51H199.256L196.664 11.2595L189.955 19.6085H186.623L194.704 9.42801C194.907 9.16401 195.19 8.92201 195.553 8.70201C195.989 8.44901 196.381 8.32251 196.73 8.32251C197.107 8.32251 197.499 8.44351 197.906 8.68551C198.254 8.89451 198.538 9.14201 198.755 9.42801L206.64 19.625Z" fill="url(#paint0_linear_171_0)"/>
</g>
<path fill-rule="evenodd" clip-rule="evenodd" d="M24.2052 0.595687C24.116 0.507036 24.0118 0.437132 23.8989 0.388107C23.7695 0.331667 23.6339 0.304828 23.5001 0.304932C23.3663 0.304828 23.2307 0.331668 23.1012 0.388108C22.9883 0.437134 22.8841 0.507036 22.7949 0.595687C22.7147 0.675439 22.6495 0.767443 22.6011 0.867054L17.4442 11.1809L2.10788 0.841831C1.74389 0.596443 1.26242 0.617134 0.920821 0.892844C0.579222 1.16855 0.457377 1.63481 0.620412 2.04239L10.1326 25.8228C10.2845 26.2025 10.6522 26.4515 11.0611 26.4515H23.5001H35.9391C36.348 26.4515 36.7157 26.2025 36.8676 25.8228L46.3797 2.04239C46.5428 1.63481 46.4209 1.16855 46.0793 0.892844C45.7377 0.617134 45.2563 0.596443 44.8923 0.841831L29.556 11.1809L24.3991 0.867054C24.3506 0.767443 24.2855 0.675439 24.2052 0.595687ZM23.5001 3.54122L19.1156 12.3101L23.5001 15.2802L27.8845 12.3101L23.5001 3.54122ZM23.5001 17.7206L14.1593 24.4515H23.5001H32.8408L23.5001 17.7206ZM21.7544 16.5134L18.1921 14.1002L13.9403 22.1441L21.7544 16.5134ZM3.68412 4.31651L11.1869 23.0735L16.5254 12.9736L3.68412 4.31651ZM25.2457 16.5134L28.808 14.1002L33.0598 22.1441L25.2457 16.5134ZM43.316 4.31651L35.8132 23.0735L30.4747 12.9736L43.316 4.31651Z" fill="url(#paint1_linear_171_0)"/>
<defs>
<linearGradient id="paint0_linear_171_0" x1="131.505" y1="6.12501" x2="131.505" y2="23.375" gradientUnits="userSpaceOnUse">
<stop stop-color="#00B9FF"/>
<stop offset="1" stop-color="#0068B5"/>
</linearGradient>
<linearGradient id="paint1_linear_171_0" x1="23.4024" y1="-4.69829" x2="23.4024" y2="34.5761" gradientUnits="userSpaceOnUse">
<stop stop-color="#00B9FF"/>
<stop offset="1" stop-color="#0068B5"/>
</linearGradient>
<clipPath id="clip0_171_0">
<rect width="150" height="12" fill="white" transform="translate(57 8)"/>
</clipPath>
</defs>
</svg>
