<svg width="212" height="70" viewBox="0 0 212 70" fill="none" xmlns="http://www.w3.org/2000/svg">
<g clip-path="url(#clip0_123_826)">
<path d="M28.3006 68.5882L23.5905 68.565L20.0501 64.1208H10.0756L12.2922 61.3753H17.8644L14.2009 56.7915L4.71897 68.565H0.00878906L11.4302 54.2088C11.7176 53.8366 12.1178 53.4953 12.6308 53.1851C13.2465 52.8283 13.8007 52.6499 14.2932 52.6499C14.8269 52.6499 15.381 52.8205 15.9557 53.1618C16.4482 53.4565 16.8484 53.8055 17.1563 54.2088L28.3006 68.5882ZM61.0446 52.6964L49.0383 67.2852C48.1968 68.3245 47.4375 68.8442 46.7602 68.8442C46.1034 68.8442 45.3543 68.3245 44.5128 67.2852L32.7528 52.6964H37.463L46.8525 64.4931L56.3345 52.6964H61.0446ZM92.1959 61.9104H80.1896V59.1416H92.1959V61.9104ZM93.1503 68.5882H74.9868V52.6964H93.1503V55.4653H78.6503V65.8194H93.1503V68.5882ZM131.869 63.6788C131.869 65.1834 131.161 66.3933 129.744 67.3085C128.39 68.1616 126.697 68.5882 124.665 68.5882H108.626V65.8194H124.665C125.67 65.8194 126.543 65.6487 127.282 65.3075C128.123 64.8887 128.544 64.3225 128.544 63.609C128.544 62.8954 128.113 62.3447 127.251 61.957C126.532 61.6312 125.67 61.4683 124.665 61.4683H114.752C112.925 61.4683 111.396 61.0883 110.165 60.3282C108.851 59.5061 108.195 58.4203 108.195 57.0708C108.195 55.7367 108.851 54.6587 110.165 53.8366C111.396 53.0765 112.925 52.6964 114.752 52.6964H130.606V55.4653H114.752C114.054 55.4653 113.459 55.6127 112.966 55.9074C112.474 56.2021 112.227 56.5976 112.227 57.094C112.227 57.6059 112.474 58.0015 112.966 58.2807C113.459 58.5599 114.054 58.6995 114.752 58.6995H124.665C126.697 58.6995 128.39 59.1416 129.744 60.0257C131.161 60.9565 131.869 62.1741 131.869 63.6788ZM168.626 68.5882H164.962V61.9802H152.617V59.2114H164.962V52.6964H168.626V68.5882ZM150.955 68.5882H147.291V52.6964H150.955V68.5882ZM211.492 68.5882L206.782 68.565L203.242 64.1208H193.267L195.484 61.3753H201.056L197.393 56.7915L187.911 68.565H183.201L194.622 54.2088C194.909 53.8366 195.309 53.4953 195.823 53.1851C196.438 52.8283 196.992 52.6499 197.485 52.6499C198.018 52.6499 198.572 52.8205 199.147 53.1618C199.64 53.4565 200.04 53.8055 200.348 54.2088L211.492 68.5882Z" fill="url(#paint0_linear_123_826)"/>
</g>
<path fill-rule="evenodd" clip-rule="evenodd" d="M107.022 0.671612C106.933 0.583362 106.83 0.5137 106.718 0.464714C106.588 0.407813 106.451 0.380754 106.317 0.38086C106.183 0.380754 106.047 0.407813 105.917 0.464714C105.804 0.5137 105.701 0.583361 105.612 0.671611C105.532 0.750976 105.467 0.842466 105.419 0.941506L98.8757 13.9677L79.5573 1.00391C79.1929 0.759352 78.7116 0.780998 78.3705 1.05728C78.0295 1.33356 77.9085 1.7999 78.0722 2.20714L89.9096 31.6647C90.0618 32.0435 90.4291 32.2918 90.8374 32.2918H106.317H121.797C122.205 32.2918 122.572 32.0435 122.725 31.6647L134.562 2.20714C134.726 1.7999 134.605 1.33356 134.264 1.05728C133.923 0.780998 133.441 0.759352 133.077 1.00391L113.759 13.9677L107.215 0.941506C107.167 0.842466 107.102 0.750976 107.022 0.671612ZM106.317 3.60893L100.549 15.0928L106.317 18.9825L112.086 15.0928L106.317 3.60893ZM106.317 21.4192L93.9473 30.2918H106.317H118.687L106.317 21.4192ZM104.566 20.2139L99.6223 16.8803L93.7218 27.9923L104.566 20.2139ZM81.1383 4.47347L90.9632 28.9228L97.9539 15.7578L81.1383 4.47347ZM108.068 20.2139L113.012 16.8803L118.912 27.9923L108.068 20.2139ZM131.496 4.47347L121.671 28.9228L114.68 15.7578L131.496 4.47347Z" fill="#5B9BD5"/>
<defs>
<linearGradient id="paint0_linear_123_826" x1="105.301" y1="49.5511" x2="105.301" y2="73.8763" gradientUnits="userSpaceOnUse">
<stop stop-color="#00B9FF"/>
<stop offset="1" stop-color="#0068B5"/>
</linearGradient>
<clipPath id="clip0_123_826">
<rect width="212" height="16.9219" fill="white" transform="translate(0 52.1948)"/>
</clipPath>
</defs>
</svg>
