<svg width="555" height="1005" viewBox="0 0 555 1005" fill="none" xmlns="http://www.w3.org/2000/svg">
<path fill-rule="evenodd" clip-rule="evenodd" d="M554.247 500.71C554.48 500.938 554.664 501.207 554.791 501.499C554.934 501.825 555.002 502.167 555.001 502.504C555.001 502.834 554.935 503.169 554.797 503.489C554.662 503.801 554.464 504.087 554.21 504.325C554.026 504.497 553.82 504.638 553.598 504.747L298.164 632.463L546.574 1001.1C547.187 1002.01 547.135 1003.22 546.445 1004.07C545.756 1004.92 544.59 1005.23 543.571 1004.82L1.57119 787.821C0.622402 787.441 0.000392866 786.522 0.000392911 785.5L0.000405281 502.5L0.000417651 219.5C0.000417696 218.478 0.622427 217.559 1.57122 217.179L543.571 0.179253C544.59 -0.228675 545.756 0.0756158 546.445 0.929467C547.135 1.78332 547.187 2.98705 546.574 3.89721L298.164 372.537L553.597 500.253C553.834 500.369 554.054 500.522 554.247 500.71ZM546.91 502.5L295.335 376.713L209.527 502.5L295.335 628.288L546.91 502.5ZM203.419 502.5L5.00042 227.244L5.00041 502.5L5.00039 777.757L203.419 502.5ZM206.444 506.854L290.857 630.595L10.7595 778.318L206.444 506.854ZM537.887 997.159L8.44943 785.189L293.681 634.758L537.887 997.159ZM206.444 498.147L290.857 374.405L10.7595 226.682L206.444 498.147ZM537.887 7.84094L8.44945 219.811L293.681 370.242L537.887 7.84094Z" fill="#F9F9F9"/>
</svg>
