<svg width="1005" height="555" viewBox="0 0 1005 555" fill="none" xmlns="http://www.w3.org/2000/svg">
<path fill-rule="evenodd" clip-rule="evenodd" d="M500.694 0.770675C500.927 0.527816 501.203 0.337886 501.504 0.207341C501.829 0.0661186 502.169 -0.000762761 502.504 6.56029e-06C502.836 0.000254249 503.173 0.0669313 503.494 0.20655C503.798 0.338109 504.077 0.530215 504.311 0.776224C504.489 0.963384 504.636 1.17546 504.747 1.40352L632.463 256.837L1001.1 8.42733C1002.01 7.81402 1003.22 7.86603 1004.07 8.55556C1004.92 9.24509 1005.23 10.4109 1004.82 11.4298L787.821 553.43C787.441 554.379 786.522 555.001 785.5 555.001H502.5H219.5C218.478 555.001 217.559 554.379 217.179 553.43L0.179254 11.4298C-0.228675 10.4109 0.0756162 9.2451 0.929467 8.55556C1.78332 7.86603 2.98705 7.81402 3.89721 8.42733L372.537 256.837L500.254 1.40365C500.366 1.17328 500.514 0.959224 500.694 0.770675ZM502.5 8.09066L376.713 259.666L502.5 345.474L628.288 259.666L502.5 8.09066ZM502.5 351.582L227.244 550.001H502.5H777.757L502.5 351.582ZM506.854 348.557L630.595 264.144L778.318 544.241L506.854 348.557ZM997.159 17.1141L785.189 546.552L634.758 261.32L997.159 17.1141ZM498.147 348.557L374.405 264.144L226.682 544.241L498.147 348.557ZM7.84094 17.1141L219.811 546.552L370.242 261.32L7.84094 17.1141Z" fill="#F9F9F9"/>
</svg>
